<?xml version="1.0" encoding="UTF-8" standalone="no"?>
<!DOCTYPE svg PUBLIC "-//W3C//DTD SVG 1.1//EN" "http://www.w3.org/Graphics/SVG/1.1/DTD/svg11.dtd">
<!-- Generated by graphviz version 2.30.1 (20201013.1554)
 -->
<!-- Title: G Pages: 1 -->
<svg width="151pt" height="348pt" viewBox="0.00 0.00 151.00 348.00" xmlns="http://www.w3.org/2000/svg" xmlns:xlink="http://www.w3.org/1999/xlink">
<g id="graph0" class="graph" transform="scale(1 1) rotate(0) translate(4 344)">
<title>G</title>
<polygon fill="white" stroke="white" points="-4,5 -4,-344 148,-344 148,5 -4,5"/>
<!-- n1 -->
<g id="node1" class="node"><title>n1</title>
<g id="a_node1"><a xlink:href="http://example.com/back-to-the-future/interviews" xlink:title="ex:interviews">
<ellipse fill="#fffc87" stroke="#808080" cx="86" cy="-18" rx="56.59" ry="18"/>
<text text-anchor="middle" x="86" y="-14.3" font-family="Times,serif" font-size="14.00">ex:interviews</text>
</a>
</g>
</g>
<!-- b2 -->
<g id="node5" class="node"><title>b2</title>
<ellipse fill="gray" stroke="gray" cx="44" cy="-86" rx="1.8" ry="1.8"/>
</g>
<!-- n1&#45;&gt;b2 -->
<g id="edge3" class="edge"><title>n1-&gt;b2</title>
<path fill="none" stroke="black" d="M61.2437,-34.4886C54.8013,-39.8295 48.6502,-46.409 45,-54 39.7729,-64.8704 42.9276,-80.452 43.7979,-84.1775"/>
<text text-anchor="middle" x="80" y="-57.5" font-family="Times,serif" font-size="10.00">wasDerivedFrom</text>
</g>
<!-- n2 -->
<g id="node2" class="node"><title>n2</title>
<g id="a_node2"><a xlink:href="http://example.com/back-to-the-future/data" xlink:title="ex:data">
<ellipse fill="#fffc87" stroke="#808080" cx="44" cy="-270" rx="35.9954" ry="18"/>
<text text-anchor="middle" x="44" y="-266.3" font-family="Times,serif" font-size="14.00">ex:data</text>
</a>
</g>
</g>
<!-- b3 -->
<g id="node6" class="node"><title>b3</title>
<ellipse fill="gray" stroke="gray" cx="86" cy="-338" rx="1.8" ry="1.8"/>
</g>
<!-- n2&#45;&gt;b3 -->
<g id="edge5" class="edge"><title>n2-&gt;b3</title>
<path fill="none" stroke="black" d="M40.2123,-287.942C39.0331,-297.506 39.2831,-309.256 45,-318 54.445,-332.446 77.936,-336.095 84.356,-336.835"/>
<text text-anchor="middle" x="80" y="-309.5" font-family="Times,serif" font-size="10.00">wasDerivedFrom</text>
</g>
<!-- n3 -->
<g id="node3" class="node"><title>n3</title>
<g id="a_node3"><a xlink:href="http://example.com/back-to-the-future/results" xlink:title="ex:results">
<ellipse fill="#fffc87" stroke="#808080" cx="44" cy="-144" rx="44.393" ry="18"/>
<text text-anchor="middle" x="44" y="-140.3" font-family="Times,serif" font-size="14.00">ex:results</text>
</a>
</g>
</g>
<!-- b1 -->
<g id="node4" class="node"><title>b1</title>
<ellipse fill="gray" stroke="gray" cx="44" cy="-212" rx="1.8" ry="1.8"/>
</g>
<!-- n3&#45;&gt;b1 -->
<g id="edge1" class="edge"><title>n3-&gt;b1</title>
<path fill="none" stroke="black" d="M44,-162.341C44,-179.451 44,-203.873 44,-209.711"/>
<text text-anchor="middle" x="79" y="-183.5" font-family="Times,serif" font-size="10.00">wasDerivedFrom</text>
</g>
<!-- b1&#45;&gt;n2 -->
<g id="edge2" class="edge"><title>b1-&gt;n2</title>
<path fill="none" stroke="black" d="M44,-213.972C44,-217.432 44,-229.584 44,-241.592"/>
<polygon fill="black" stroke="black" points="40.5001,-241.884 44,-251.884 47.5001,-241.884 40.5001,-241.884"/>
</g>
<!-- b2&#45;&gt;n3 -->
<g id="edge4" class="edge"><title>b2-&gt;n3</title>
<path fill="none" stroke="black" d="M44,-87.972C44,-91.4318 44,-103.584 44,-115.592"/>
<polygon fill="black" stroke="black" points="40.5001,-115.884 44,-125.884 47.5001,-115.884 40.5001,-115.884"/>
</g>
<!-- b3&#45;&gt;n1 -->
<g id="edge6" class="edge"><title>b3-&gt;n1</title>
<path fill="none" stroke="black" d="M87.334,-336.517C91.9277,-334.785 107.234,-328.427 115,-318 128.019,-300.52 129,-292.796 129,-271 129,-85 129,-85 129,-85 129,-69.3328 120.389,-54.4706 110.873,-42.8304"/>
<polygon fill="black" stroke="black" points="113.479,-40.4941 104.236,-35.3163 108.233,-45.1283 113.479,-40.4941"/>
</g>
</g>
</svg>