<?xml version="1.0" encoding="UTF-8" standalone="no"?>
<!-- Created with Inkscape (http://www.inkscape.org/) -->

<svg
   width="127.99991mm"
   height="215.17992mm"
   viewBox="0 0 127.99991 215.17992"
   version="1.1"
   id="svg5"
   inkscape:version="1.1.2 (0a00cf5339, 2022-02-04)"
   sodipodi:docname="fairtulip.svg"
   xmlns:inkscape="http://www.inkscape.org/namespaces/inkscape"
   xmlns:sodipodi="http://sodipodi.sourceforge.net/DTD/sodipodi-0.dtd"
   xmlns="http://www.w3.org/2000/svg"
   xmlns:svg="http://www.w3.org/2000/svg">
  <sodipodi:namedview
     id="namedview7"
     pagecolor="#ffffff"
     bordercolor="#666666"
     borderopacity="1.0"
     inkscape:pageshadow="2"
     inkscape:pageopacity="0.0"
     inkscape:pagecheckerboard="0"
     inkscape:document-units="mm"
     showgrid="false"
     inkscape:zoom="0.5"
     inkscape:cx="43"
     inkscape:cy="907"
     inkscape:window-width="2486"
     inkscape:window-height="1376"
     inkscape:window-x="0"
     inkscape:window-y="0"
     inkscape:window-maximized="1"
     inkscape:current-layer="layer1"
     fit-margin-top="4"
     fit-margin-left="4"
     fit-margin-right="4"
     fit-margin-bottom="4" />
  <defs
     id="defs2">
    <rect
       x="-171.20161"
       y="-248.78288"
       width="1183.7715"
       height="1499.4312"
       id="rect104797" />
  </defs>
  <g
     inkscape:label="FAIR tulip"
     inkscape:groupmode="layer"
     id="layer1"
     sodipodi:insensitive="true"
     transform="translate(-47.38983,-22.122589)">
    <g
       id="g18242"
       inkscape:label="fair">
      <g
         id="g18012"
         inkscape:label="tulip">
        <circle
           style="fill:#e76331;fill-opacity:1;stroke-width:0.266009"
           id="path247"
           cx="111.38979"
           cy="59.462132"
           r="33.339542" />
        <rect
           style="fill:#333333;fill-opacity:1;stroke-width:0.256381"
           id="rect30520"
           width="20.135954"
           height="49.622929"
           x="101.32181"
           y="183.67958" />
        <path
           id="path247-3-6"
           style="fill:#3e5aa1;fill-opacity:1;stroke-width:0.478727"
           d="m 51.38983,127.09518 a 59.999998,59.999998 0 0 0 59.99995,59.99996 59.999998,59.999998 0 0 0 59.99996,-59.99996 z" />
        <path
           id="path247-3-62"
           style="fill:#88aa00;fill-opacity:1;stroke-width:0.528709"
           d="m 51.38983,67.397024 v 59.698156 h 59.69868 A 66.264456,66.264456 0 0 0 51.38983,67.397024 Z" />
        <path
           id="path247-3-62-1"
           style="fill:#ffd42a;fill-opacity:1;stroke-width:0.528709"
           d="m 171.38974,67.428534 a 66.264456,66.264456 0 0 0 -59.66665,59.666646 h 59.66665 z" />
      </g>
      <g
         id="g18173"
         inkscape:label="textsh">
        <g
           aria-label="FAIR"
           transform="rotate(-90)"
           id="text32747-7"
           style="font-weight:600;font-size:11.2889px;line-height:1.25;font-family:'IBM Plex Sans';-inkscape-font-specification:'IBM Plex Sans Semi-Bold';letter-spacing:1.83885px;word-spacing:0px;fill:#f2f2f2;stroke-width:0.264583">
          <path
             d="m -226.46381,115.55853 v -7.87965 h 5.06872 v 1.3208 h -3.57858 v 1.90783 h 3.11574 v 1.3208 h -3.11574 v 3.33022 z"
             style="baseline-shift:baseline"
             id="path11614" />
          <path
             d="m -214.06985,115.55853 -0.63218,-2.00942 h -2.79965 l -0.62089,2.00942 h -1.51271 l 2.6416,-7.87965 h 1.85138 l 2.61903,7.87965 z m -2.00943,-6.52498 h -0.0564 l -1.00471,3.23991 h 2.07715 z"
             style="baseline-shift:baseline"
             id="path11616" />
          <path
             d="m -209.84906,115.55853 v -1.19662 h 1.03858 v -5.48641 h -1.03858 v -1.19662 h 3.57858 v 1.19662 h -1.04986 v 5.48641 h 1.04986 v 1.19662 z"
             style="baseline-shift:baseline"
             id="path11618" />
          <path
             d="m -201.41751,115.55853 h -1.49013 v -7.87965 h 3.556 q 0.54187,0 0.97085,0.16933 0.42898,0.16934 0.72249,0.49672 0.3048,0.31608 0.46284,0.76764 0.16934,0.45156 0.16934,1.00471 0,0.8128 -0.37254,1.39983 -0.36124,0.58702 -1.09502,0.83538 l 1.61431,3.20604 h -1.65947 l -1.46755,-3.03671 h -1.41112 z m 1.91912,-4.28978 q 0.42898,0 0.67733,-0.22578 0.24836,-0.23706 0.24836,-0.66604 v -0.51929 q 0,-0.42898 -0.24836,-0.65476 -0.24835,-0.22578 -0.67733,-0.22578 h -1.91912 v 2.29165 z"
             style="baseline-shift:baseline"
             id="path11620" />
        </g>
        <g
           aria-label="Accessible"
           id="text32747-7-9-6"
           style="font-weight:600;font-size:11.2889px;line-height:1.25;font-family:'IBM Plex Sans';-inkscape-font-specification:'IBM Plex Sans Semi-Bold';letter-spacing:0px;word-spacing:0px;fill:#ffffff;stroke-width:0.264583"
           inkscape:transform-center-x="17.361147"
           inkscape:transform-center-y="0.47309923">
          <path
             d="m 119.38984,124.3048 -0.63218,-2.00942 h -2.79965 l -0.62089,2.00942 h -1.51271 l 2.6416,-7.87965 h 1.85138 l 2.61903,7.87965 z m -2.00943,-6.52498 h -0.0564 l -1.00471,3.23991 h 2.07715 z"
             id="path11650" />
          <path
             d="m 124.33436,124.44027 q -0.65475,0 -1.16275,-0.21449 -0.508,-0.21449 -0.85796,-0.62089 -0.33867,-0.4064 -0.51929,-0.97085 -0.18062,-0.57573 -0.18062,-1.28693 0,-0.7112 0.18062,-1.27565 0.18062,-0.56444 0.51929,-0.95955 0.34996,-0.4064 0.85796,-0.62089 0.508,-0.21449 1.16275,-0.21449 0.89183,0 1.46756,0.39511 0.58702,0.39511 0.84667,1.09502 l -1.18534,0.53058 q -0.1016,-0.37253 -0.38382,-0.6096 -0.27093,-0.24835 -0.74507,-0.24835 -0.6096,0 -0.9144,0.38382 -0.29351,0.38382 -0.29351,1.00471 v 1.07245 q 0,0.62089 0.29351,1.00471 0.3048,0.37253 0.9144,0.37253 0.51929,0 0.80152,-0.25964 0.28222,-0.27094 0.44026,-0.66605 l 1.10631,0.53058 q -0.29351,0.77893 -0.89182,1.17405 -0.59831,0.38382 -1.45627,0.38382 z"
             id="path11652" />
          <path
             d="m 130.0691,124.44027 q -0.65476,0 -1.16276,-0.21449 -0.508,-0.21449 -0.85796,-0.62089 -0.33866,-0.4064 -0.51929,-0.97085 -0.18062,-0.57573 -0.18062,-1.28693 0,-0.7112 0.18062,-1.27565 0.18063,-0.56444 0.51929,-0.95955 0.34996,-0.4064 0.85796,-0.62089 0.508,-0.21449 1.16276,-0.21449 0.89182,0 1.46755,0.39511 0.58703,0.39511 0.84667,1.09502 l -1.18533,0.53058 q -0.1016,-0.37253 -0.38383,-0.6096 -0.27093,-0.24835 -0.74506,-0.24835 -0.6096,0 -0.9144,0.38382 -0.29352,0.38382 -0.29352,1.00471 v 1.07245 q 0,0.62089 0.29352,1.00471 0.3048,0.37253 0.9144,0.37253 0.51929,0 0.80151,-0.25964 0.28222,-0.27094 0.44027,-0.66605 l 1.10631,0.53058 q -0.29351,0.77893 -0.89183,1.17405 -0.59831,0.38382 -1.45626,0.38382 z"
             id="path11654" />
          <path
             d="m 135.86027,124.44027 q -0.65475,0 -1.17404,-0.21449 -0.508,-0.22578 -0.86925,-0.62089 -0.34995,-0.4064 -0.54186,-0.97085 -0.19192,-0.57573 -0.19192,-1.28693 0,-0.69991 0.18063,-1.26436 0.19191,-0.56444 0.54186,-0.95955 0.34996,-0.4064 0.85796,-0.62089 0.508,-0.22578 1.15147,-0.22578 0.68862,0 1.19662,0.23707 0.508,0.23706 0.83538,0.64346 0.32738,0.4064 0.48542,0.94827 0.16934,0.53058 0.16934,1.14018 v 0.47413 h -3.91725 v 0.14676 q 0,0.64347 0.36124,1.03858 0.36125,0.38382 1.07245,0.38382 0.54187,0 0.88053,-0.22578 0.34996,-0.22578 0.62089,-0.57573 l 0.77894,0.86924 q -0.36125,0.508 -0.99343,0.80152 -0.62089,0.28222 -1.44498,0.28222 z m -0.0226,-5.08001 q -0.57574,0 -0.91441,0.38383 -0.33866,0.38382 -0.33866,0.99342 v 0.0903 h 2.41582 v -0.1016 q 0,-0.6096 -0.3048,-0.98213 -0.29351,-0.38383 -0.85795,-0.38383 z"
             id="path11656" />
          <path
             d="m 141.70791,124.44027 q -0.84667,0 -1.4224,-0.28222 -0.57574,-0.29352 -1.016,-0.80152 l 0.88053,-0.85795 q 0.32738,0.37253 0.7112,0.58702 0.39511,0.21449 0.90311,0.21449 0.51929,0 0.74507,-0.18062 0.23707,-0.18063 0.23707,-0.49671 0,-0.25965 -0.16933,-0.4064 -0.15805,-0.15805 -0.55316,-0.21449 l -0.58702,-0.079 q -0.95956,-0.12417 -1.46756,-0.54186 -0.49671,-0.42898 -0.49671,-1.24178 0,-0.42898 0.15804,-0.76765 0.15805,-0.34995 0.45156,-0.58702 0.29351,-0.24836 0.69991,-0.37253 0.41769,-0.13547 0.92569,-0.13547 0.42898,0 0.75636,0.0677 0.33866,0.0564 0.6096,0.18062 0.27093,0.11289 0.49671,0.29352 0.22578,0.16933 0.44027,0.38382 l -0.84667,0.84667 q -0.25965,-0.27094 -0.62089,-0.45156 -0.36125,-0.18062 -0.79022,-0.18062 -0.47414,0 -0.68863,0.16933 -0.2032,0.16934 -0.2032,0.44027 0,0.29351 0.16934,0.45155 0.18062,0.14676 0.59831,0.21449 l 0.59831,0.079 q 1.90782,0.27093 1.90782,1.73849 0,0.42897 -0.18062,0.79022 -0.16933,0.34996 -0.48542,0.6096 -0.31609,0.24836 -0.76765,0.39511 -0.44026,0.13547 -0.99342,0.13547 z"
             id="path11658" />
          <path
             d="m 147.26201,124.44027 q -0.84667,0 -1.4224,-0.28222 -0.57573,-0.29352 -1.016,-0.80152 l 0.88053,-0.85795 q 0.32738,0.37253 0.7112,0.58702 0.39512,0.21449 0.90312,0.21449 0.51929,0 0.74506,-0.18062 0.23707,-0.18063 0.23707,-0.49671 0,-0.25965 -0.16933,-0.4064 -0.15805,-0.15805 -0.55316,-0.21449 l -0.58702,-0.079 q -0.95956,-0.12417 -1.46756,-0.54186 -0.49671,-0.42898 -0.49671,-1.24178 0,-0.42898 0.15804,-0.76765 0.15805,-0.34995 0.45156,-0.58702 0.29351,-0.24836 0.69991,-0.37253 0.41769,-0.13547 0.92569,-0.13547 0.42898,0 0.75636,0.0677 0.33867,0.0564 0.6096,0.18062 0.27093,0.11289 0.49671,0.29352 0.22578,0.16933 0.44027,0.38382 l -0.84667,0.84667 q -0.25964,-0.27094 -0.62089,-0.45156 -0.36124,-0.18062 -0.79022,-0.18062 -0.47414,0 -0.68863,0.16933 -0.2032,0.16934 -0.2032,0.44027 0,0.29351 0.16934,0.45155 0.18062,0.14676 0.59831,0.21449 l 0.59831,0.079 q 1.90783,0.27093 1.90783,1.73849 0,0.42897 -0.18063,0.79022 -0.16933,0.34996 -0.48542,0.6096 -0.31609,0.24836 -0.76765,0.39511 -0.44026,0.13547 -0.99342,0.13547 z"
             id="path11660" />
          <path
             d="m 151.68724,117.55404 q -0.45155,0 -0.65475,-0.2032 -0.19191,-0.2032 -0.19191,-0.51929 v -0.22578 q 0,-0.31609 0.19191,-0.51929 0.2032,-0.2032 0.65475,-0.2032 0.44027,0 0.64347,0.2032 0.2032,0.2032 0.2032,0.51929 v 0.22578 q 0,0.31609 -0.2032,0.51929 -0.2032,0.2032 -0.64347,0.2032 z m -0.72249,0.85796 h 1.44498 v 5.8928 h -1.44498 z"
             id="path11662" />
          <path
             d="m 154.08048,115.95102 h 1.44498 v 3.43182 h 0.0452 q 0.15804,-0.508 0.59831,-0.80151 0.44026,-0.3048 1.02729,-0.3048 1.12889,0 1.71591,0.80151 0.59831,0.79022 0.59831,2.26907 0,1.49013 -0.59831,2.29165 -0.58702,0.80151 -1.71591,0.80151 -0.58703,0 -1.02729,-0.3048 -0.42898,-0.3048 -0.59831,-0.8128 h -0.0452 v 0.98213 h -1.44498 z m 2.65289,7.29263 q 0.56445,0 0.9144,-0.37254 0.34996,-0.37253 0.34996,-1.00471 v -1.016 q 0,-0.63218 -0.34996,-1.00471 -0.34995,-0.38383 -0.9144,-0.38383 -0.51929,0 -0.86924,0.25965 -0.33867,0.25964 -0.33867,0.68862 v 1.87396 q 0,0.46284 0.33867,0.7112 0.34995,0.24836 0.86924,0.24836 z"
             id="path11664" />
          <path
             d="m 162.29878,124.3048 q -0.74506,0 -1.09502,-0.37253 -0.34996,-0.37254 -0.34996,-1.04987 v -6.93138 h 1.44498 v 7.20231 h 0.77894 v 1.15147 z"
             id="path11666" />
          <path
             d="m 166.55469,124.44027 q -0.65476,0 -1.17405,-0.21449 -0.508,-0.22578 -0.86925,-0.62089 -0.34995,-0.4064 -0.54186,-0.97085 -0.19191,-0.57573 -0.19191,-1.28693 0,-0.69991 0.18062,-1.26436 0.19191,-0.56444 0.54187,-0.95955 0.34995,-0.4064 0.85795,-0.62089 0.508,-0.22578 1.15147,-0.22578 0.68862,0 1.19662,0.23707 0.508,0.23706 0.83538,0.64346 0.32738,0.4064 0.48542,0.94827 0.16934,0.53058 0.16934,1.14018 v 0.47413 h -3.91725 v 0.14676 q 0,0.64347 0.36124,1.03858 0.36125,0.38382 1.07245,0.38382 0.54187,0 0.88053,-0.22578 0.34996,-0.22578 0.62089,-0.57573 l 0.77894,0.86924 q -0.36125,0.508 -0.99343,0.80152 -0.62088,0.28222 -1.44497,0.28222 z m -0.0226,-5.08001 q -0.57574,0 -0.9144,0.38383 -0.33867,0.38382 -0.33867,0.99342 v 0.0903 h 2.41582 v -0.1016 q 0,-0.6096 -0.3048,-0.98213 -0.29351,-0.38383 -0.85795,-0.38383 z"
             id="path11668" />
        </g>
        <g
           aria-label="Reusable"
           id="text32747-7-9-2-3"
           style="font-weight:600;font-size:11.2889px;line-height:1.25;font-family:'IBM Plex Sans';-inkscape-font-specification:'IBM Plex Sans Semi-Bold';letter-spacing:0px;word-spacing:0px;fill:#ffffff;stroke-width:0.264583"
           inkscape:transform-center-x="17.361147"
           inkscape:transform-center-y="0.47309923">
          <path
             d="m 56.987106,124.3048 h -1.490135 v -7.87965 h 3.556004 q 0.541867,0 0.970845,0.16933 0.428979,0.16934 0.72249,0.49671 0.3048,0.31609 0.462845,0.76765 0.169333,0.45156 0.169333,1.00471 0,0.8128 -0.372533,1.39983 -0.361245,0.58702 -1.095024,0.83537 l 1.614313,3.20605 h -1.659468 l -1.467557,-3.03671 h -1.411113 z m 1.919113,-4.28978 q 0.428978,0 0.677334,-0.22578 0.248356,-0.23707 0.248356,-0.66604 v -0.51929 q 0,-0.42898 -0.248356,-0.65476 -0.248356,-0.22578 -0.677334,-0.22578 h -1.919113 v 2.29165 z"
             id="path11688" />
          <path
             d="m 65.115095,124.44027 q -0.654757,0 -1.174046,-0.21449 -0.508001,-0.22578 -0.869245,-0.62089 -0.349956,-0.4064 -0.541868,-0.97085 -0.191911,-0.57573 -0.191911,-1.28693 0,-0.69991 0.180623,-1.26436 0.191911,-0.56444 0.541867,-0.95955 0.349956,-0.4064 0.857956,-0.62089 0.508001,-0.22578 1.151468,-0.22578 0.688623,0 1.196623,0.23707 0.508001,0.23706 0.835379,0.64346 0.327378,0.4064 0.485423,0.94827 0.169333,0.53058 0.169333,1.14018 v 0.47413 h -3.917248 v 0.14676 q 0,0.64347 0.361245,1.03858 0.361244,0.38382 1.072445,0.38382 0.541867,0 0.880534,-0.22578 0.349956,-0.22578 0.62089,-0.57573 l 0.778934,0.86924 q -0.361245,0.508 -0.993423,0.80152 -0.62089,0.28222 -1.444979,0.28222 z m -0.02258,-5.08001 q -0.575734,0 -0.914401,0.38383 -0.338667,0.38382 -0.338667,0.99342 v 0.0903 h 2.415825 v -0.1016 q 0,-0.6096 -0.304801,-0.98213 -0.293511,-0.38383 -0.857956,-0.38383 z"
             id="path11690" />
          <path
             d="m 72.554465,123.32267 h -0.05644 q -0.07902,0.22578 -0.214489,0.42898 -0.124178,0.19191 -0.327378,0.34995 -0.191911,0.15805 -0.474134,0.24836 -0.270934,0.0903 -0.632178,0.0903 -0.914401,0 -1.399824,-0.59831 -0.485423,-0.59831 -0.485423,-1.70463 V 118.412 h 1.444979 v 3.57858 q 0,0.6096 0.237067,0.93698 0.237067,0.31609 0.756357,0.31609 0.214489,0 0.417689,-0.0564 0.214489,-0.0564 0.372534,-0.16933 0.158044,-0.12418 0.259644,-0.29351 0.101601,-0.18063 0.101601,-0.41769 V 118.412 h 1.444979 v 5.8928 H 72.55447 Z"
             id="path11692" />
          <path
             d="m 77.600597,124.44027 q -0.846668,0 -1.422402,-0.28222 -0.575734,-0.29352 -1.016001,-0.80152 l 0.880534,-0.85795 q 0.327378,0.37253 0.711201,0.58702 0.395112,0.21449 0.903112,0.21449 0.519289,0 0.745067,-0.18062 0.237067,-0.18063 0.237067,-0.49671 0,-0.25965 -0.169333,-0.4064 -0.158045,-0.15805 -0.553156,-0.21449 l -0.587023,-0.079 q -0.959557,-0.12417 -1.467557,-0.54186 -0.496712,-0.42898 -0.496712,-1.24178 0,-0.42898 0.158045,-0.76765 0.158045,-0.34995 0.451556,-0.58702 0.293511,-0.24836 0.699912,-0.37253 0.417689,-0.13547 0.92569,-0.13547 0.428978,0 0.756356,0.0677 0.338667,0.0564 0.609601,0.18062 0.270933,0.11289 0.496711,0.29352 0.225778,0.16933 0.440267,0.38382 l -0.846667,0.84667 q -0.259645,-0.27094 -0.62089,-0.45156 -0.361245,-0.18062 -0.790223,-0.18062 -0.474134,0 -0.688623,0.16933 -0.2032,0.16934 -0.2032,0.44027 0,0.29351 0.169334,0.45155 0.180622,0.14676 0.598311,0.21449 l 0.598312,0.079 q 1.907824,0.27093 1.907824,1.73849 0,0.42897 -0.180622,0.79022 -0.169334,0.34996 -0.485423,0.6096 -0.316089,0.24836 -0.767645,0.39511 -0.440267,0.13547 -0.993423,0.13547 z"
             id="path11694" />
          <path
             d="m 85.638277,124.3048 q -0.474134,0 -0.756357,-0.27093 -0.270933,-0.28222 -0.338667,-0.74507 h -0.06773 q -0.146756,0.57573 -0.598312,0.86925 -0.451556,0.28222 -1.117601,0.28222 -0.903112,0 -1.388535,-0.47414 -0.485422,-0.47413 -0.485422,-1.26435 0,-0.9144 0.654756,-1.35467 0.654756,-0.45156 1.862668,-0.45156 h 1.004713 v -0.42897 q 0,-0.49672 -0.259645,-0.76765 -0.259645,-0.27093 -0.835379,-0.27093 -0.508,0 -0.824089,0.22577 -0.304801,0.21449 -0.51929,0.51929 l -0.857956,-0.76764 q 0.327378,-0.508 0.869245,-0.8128 0.541867,-0.31609 1.43369,-0.31609 1.196624,0 1.817513,0.54187 0.62089,0.54186 0.62089,1.55786 v 2.77707 h 0.587023 v 1.15147 z m -2.393247,-0.9144 q 0.485423,0 0.82409,-0.21449 0.338667,-0.21449 0.338667,-0.63218 v -0.77893 h -0.92569 q -1.12889,0 -1.12889,0.72249 v 0.19191 q 0,0.36125 0.225778,0.54187 0.237067,0.16933 0.666045,0.16933 z"
             id="path11696" />
          <path
             d="m 87.613813,115.95102 h 1.44498 v 3.43182 h 0.04516 q 0.158045,-0.508 0.598312,-0.80151 0.440267,-0.3048 1.02729,-0.3048 1.12889,0 1.715913,0.80151 0.598311,0.79022 0.598311,2.26907 0,1.49013 -0.598311,2.29165 -0.587023,0.80151 -1.715913,0.80151 -0.587023,0 -1.02729,-0.3048 -0.428978,-0.3048 -0.598312,-0.8128 h -0.04516 v 0.98213 h -1.44498 z m 2.652892,7.29263 q 0.564445,0 0.914401,-0.37254 0.349956,-0.37253 0.349956,-1.00471 v -1.016 q 0,-0.63218 -0.349956,-1.00471 -0.349956,-0.38383 -0.914401,-0.38383 -0.519289,0 -0.869245,0.25965 -0.338667,0.25964 -0.338667,0.68862 v 1.87396 q 0,0.46284 0.338667,0.7112 0.349956,0.24836 0.869245,0.24836 z"
             id="path11698" />
          <path
             d="m 95.832116,124.3048 q -0.745068,0 -1.095024,-0.37253 -0.349956,-0.37254 -0.349956,-1.04987 v -6.93138 h 1.44498 v 7.20231 h 0.778934 v 1.15147 z"
             id="path11700" />
          <path
             d="m 100.08802,124.44027 q -0.654758,0 -1.174047,-0.21449 -0.508001,-0.22578 -0.869246,-0.62089 -0.349956,-0.4064 -0.541867,-0.97085 -0.191911,-0.57573 -0.191911,-1.28693 0,-0.69991 0.180622,-1.26436 0.191912,-0.56444 0.541868,-0.95955 0.349955,-0.4064 0.857956,-0.62089 0.508,-0.22578 1.151465,-0.22578 0.68863,0 1.19663,0.23707 0.508,0.23706 0.83537,0.64346 0.32738,0.4064 0.48543,0.94827 0.16933,0.53058 0.16933,1.14018 v 0.47413 h -3.917247 v 0.14676 q 0,0.64347 0.361244,1.03858 0.361245,0.38382 1.072443,0.38382 0.54187,0 0.88054,-0.22578 0.34995,-0.22578 0.62089,-0.57573 l 0.77893,0.86924 q -0.36124,0.508 -0.99342,0.80152 -0.62089,0.28222 -1.44498,0.28222 z m -0.0226,-5.08001 q -0.575733,0 -0.9144,0.38383 -0.338667,0.38382 -0.338667,0.99342 v 0.0903 h 2.415827 v -0.1016 q 0,-0.6096 -0.3048,-0.98213 -0.29351,-0.38383 -0.85796,-0.38383 z"
             id="path11702" />
        </g>
        <g
           aria-label="Interoperable"
           id="text32747-7-9-2-7-3"
           style="font-weight:600;font-size:11.2889px;line-height:1.25;font-family:'IBM Plex Sans';-inkscape-font-specification:'IBM Plex Sans Semi-Bold';letter-spacing:0px;word-spacing:0px;fill:#ffffff;stroke-width:0.264583"
           inkscape:transform-center-x="17.361147"
           inkscape:transform-center-y="0.47309923">
          <path
             d="m 75.530021,144.61465 v -1.19662 H 76.5686 v -5.4864 H 75.530021 V 136.735 h 3.578581 v 1.19663 h -1.049867 v 5.4864 h 1.049867 v 1.19662 z"
             id="path11623" />
          <path
             d="m 80.542275,144.61465 v -5.8928 h 1.444979 v 0.98213 h 0.05645 q 0.180622,-0.47413 0.564445,-0.79022 0.395111,-0.32738 1.083734,-0.32738 0.914401,0 1.399824,0.59831 0.485423,0.59832 0.485423,1.70463 v 3.72533 h -1.44498 v -3.57858 q 0,-0.63218 -0.225778,-0.94826 -0.225778,-0.31609 -0.745067,-0.31609 -0.225778,0 -0.440267,0.0677 -0.203201,0.0564 -0.372534,0.18062 -0.158045,0.11289 -0.259645,0.29351 -0.1016,0.16934 -0.1016,0.4064 v 3.89467 z"
             id="path11625" />
          <path
             d="m 89.020232,144.61465 q -0.745067,0 -1.140179,-0.38382 -0.383822,-0.39511 -0.383822,-1.1176 v -3.23991 h -0.869246 v -1.15147 h 0.451556 q 0.327378,0 0.440267,-0.14676 0.124178,-0.15804 0.124178,-0.46284 v -1.00471 h 1.298224 v 1.61431 h 1.207912 v 1.15147 H 88.94121 v 3.58987 h 1.117601 v 1.15146 z"
             id="path11627" />
          <path
             d="m 93.738958,144.75012 q -0.654756,0 -1.174045,-0.21449 -0.508001,-0.22578 -0.869246,-0.62089 -0.349956,-0.4064 -0.541867,-0.97084 -0.191911,-0.57574 -0.191911,-1.28694 0,-0.69991 0.180622,-1.26435 0.191912,-0.56445 0.541867,-0.95956 0.349956,-0.4064 0.857957,-0.62089 0.508,-0.22578 1.151468,-0.22578 0.688623,0 1.196623,0.23707 0.508001,0.23707 0.835379,0.64347 0.327378,0.4064 0.485422,0.94826 0.169334,0.53058 0.169334,1.14018 v 0.47414 h -3.917248 v 0.14675 q 0,0.64347 0.361244,1.03858 0.361245,0.38382 1.072446,0.38382 0.541867,0 0.880534,-0.22577 0.349956,-0.22578 0.62089,-0.57574 l 0.778934,0.86925 q -0.361245,0.508 -0.993423,0.80151 -0.62089,0.28222 -1.44498,0.28222 z m -0.02258,-5.08 q -0.575734,0 -0.914401,0.38382 -0.338667,0.38382 -0.338667,0.99342 v 0.0903 h 2.415824 v -0.1016 q 0,-0.6096 -0.3048,-0.98213 -0.293511,-0.38382 -0.857956,-0.38382 z"
             id="path11629" />
          <path
             d="m 97.656191,144.61465 v -5.8928 h 1.444979 v 1.2192 h 0.05645 q 0.05644,-0.23707 0.169333,-0.45156 0.124178,-0.22577 0.316089,-0.39511 0.191912,-0.16933 0.451558,-0.27093 0.27094,-0.1016 0.62089,-0.1016 h 0.31609 v 1.36596 h -0.45155 q -0.733787,0 -1.106321,0.21448 -0.372534,0.21449 -0.372534,0.69992 v 3.61244 z"
             id="path11631" />
          <path
             d="m 104.37307,144.75012 q -0.63218,0 -1.14018,-0.21449 -0.49671,-0.21449 -0.85795,-0.62089 -0.34996,-0.4064 -0.54187,-0.97084 -0.19191,-0.57574 -0.19191,-1.28694 0,-0.7112 0.19191,-1.27564 0.19191,-0.56445 0.54187,-0.95956 0.36124,-0.4064 0.85795,-0.62089 0.508,-0.21449 1.14018,-0.21449 0.63218,0 1.14018,0.21449 0.508,0.21449 0.85796,0.62089 0.36124,0.39511 0.55315,0.95956 0.19191,0.56444 0.19191,1.27564 0,0.7112 -0.19191,1.28694 -0.19191,0.56444 -0.55315,0.97084 -0.34996,0.4064 -0.85796,0.62089 -0.508,0.21449 -1.14018,0.21449 z m 0,-1.16276 q 0.57573,0 0.90311,-0.34995 0.32738,-0.34996 0.32738,-1.02729 v -1.09502 q 0,-0.66605 -0.32738,-1.01601 -0.32738,-0.34995 -0.90311,-0.34995 -0.56444,0 -0.89182,0.34995 -0.32738,0.34996 -0.32738,1.01601 v 1.09502 q 0,0.67733 0.32738,1.02729 0.32738,0.34995 0.89182,0.34995 z"
             id="path11633" />
          <path
             d="m 108.39192,138.72185 h 1.44498 v 0.97084 h 0.0452 q 0.15805,-0.508 0.59831,-0.80151 0.44027,-0.3048 1.02729,-0.3048 1.12889,0 1.71592,0.80151 0.59831,0.79023 0.59831,2.26907 0,1.49014 -0.59831,2.29165 -0.58703,0.80151 -1.71592,0.80151 -0.58702,0 -1.02729,-0.3048 -0.42898,-0.3048 -0.59831,-0.8128 h -0.0452 v 3.23991 h -1.44498 z m 2.65289,4.83165 q 0.56444,0 0.9144,-0.37254 0.34995,-0.37253 0.34995,-1.00471 v -1.016 q 0,-0.63218 -0.34995,-1.00471 -0.34996,-0.38382 -0.9144,-0.38382 -0.51929,0 -0.86925,0.25964 -0.33866,0.25965 -0.33866,0.68862 v 1.87396 q 0,0.46285 0.33866,0.7112 0.34996,0.24836 0.86925,0.24836 z"
             id="path11635" />
          <path
             d="m 117.5472,144.75012 q -0.65476,0 -1.17405,-0.21449 -0.508,-0.22578 -0.86924,-0.62089 -0.34996,-0.4064 -0.54187,-0.97084 -0.19191,-0.57574 -0.19191,-1.28694 0,-0.69991 0.18062,-1.26435 0.19191,-0.56445 0.54187,-0.95956 0.34995,-0.4064 0.85795,-0.62089 0.508,-0.22578 1.15147,-0.22578 0.68862,0 1.19663,0.23707 0.508,0.23707 0.83537,0.64347 0.32738,0.4064 0.48543,0.94826 0.16933,0.53058 0.16933,1.14018 v 0.47414 h -3.91725 v 0.14675 q 0,0.64347 0.36125,1.03858 0.36124,0.38382 1.07244,0.38382 0.54187,0 0.88054,-0.22577 0.34995,-0.22578 0.62089,-0.57574 l 0.77893,0.86925 q -0.36125,0.508 -0.99342,0.80151 -0.62089,0.28222 -1.44498,0.28222 z m -0.0226,-5.08 q -0.57573,0 -0.9144,0.38382 -0.33867,0.38382 -0.33867,0.99342 v 0.0903 h 2.41583 v -0.1016 q 0,-0.6096 -0.3048,-0.98213 -0.29352,-0.38382 -0.85796,-0.38382 z"
             id="path11637" />
          <path
             d="m 121.46443,144.61465 v -5.8928 h 1.44498 v 1.2192 h 0.0564 q 0.0564,-0.23707 0.16934,-0.45156 0.12417,-0.22577 0.31609,-0.39511 0.19191,-0.16933 0.45155,-0.27093 0.27094,-0.1016 0.62089,-0.1016 h 0.31609 v 1.36596 h -0.45155 q -0.73378,0 -1.10632,0.21448 -0.37253,0.21449 -0.37253,0.69992 v 3.61244 z"
             id="path11639" />
          <path
             d="m 130.11171,144.61465 q -0.47414,0 -0.75636,-0.27093 -0.27093,-0.28222 -0.33867,-0.74507 h -0.0677 q -0.14676,0.57574 -0.59831,0.86925 -0.45156,0.28222 -1.1176,0.28222 -0.90311,0 -1.38854,-0.47413 -0.48542,-0.47414 -0.48542,-1.26436 0,-0.9144 0.65476,-1.35467 0.65475,-0.45155 1.86267,-0.45155 h 1.00471 v -0.42898 q 0,-0.49671 -0.25965,-0.76765 -0.25964,-0.27093 -0.83538,-0.27093 -0.508,0 -0.82409,0.22578 -0.3048,0.21449 -0.51929,0.51929 l -0.85795,-0.76765 q 0.32738,-0.508 0.86924,-0.8128 0.54187,-0.31609 1.43369,-0.31609 1.19663,0 1.81752,0.54187 0.62089,0.54187 0.62089,1.55787 v 2.77707 h 0.58702 v 1.15146 z m -2.39325,-0.9144 q 0.48542,0 0.82409,-0.21449 0.33867,-0.21448 0.33867,-0.63217 v -0.77894 h -0.92569 q -1.12889,0 -1.12889,0.72249 v 0.19191 q 0,0.36125 0.22578,0.54187 0.23706,0.16933 0.66604,0.16933 z"
             id="path11641" />
          <path
             d="m 132.08724,136.26087 h 1.44498 v 3.43182 h 0.0452 q 0.15804,-0.508 0.59831,-0.80151 0.44027,-0.3048 1.02729,-0.3048 1.12889,0 1.71591,0.80151 0.59832,0.79023 0.59832,2.26907 0,1.49014 -0.59832,2.29165 -0.58702,0.80151 -1.71591,0.80151 -0.58702,0 -1.02729,-0.3048 -0.42898,-0.3048 -0.59831,-0.8128 h -0.0452 v 0.98213 h -1.44498 z m 2.6529,7.29263 q 0.56444,0 0.9144,-0.37254 0.34995,-0.37253 0.34995,-1.00471 v -1.016 q 0,-0.63218 -0.34995,-1.00471 -0.34996,-0.38382 -0.9144,-0.38382 -0.51929,0 -0.86925,0.25964 -0.33867,0.25965 -0.33867,0.68862 v 1.87396 q 0,0.46285 0.33867,0.7112 0.34996,0.24836 0.86925,0.24836 z"
             id="path11643" />
          <path
             d="m 140.30555,144.61465 q -0.74507,0 -1.09503,-0.37253 -0.34995,-0.37253 -0.34995,-1.04987 v -6.93138 h 1.44498 v 7.20232 h 0.77893 v 1.15146 z"
             id="path11645" />
          <path
             d="m 144.56145,144.75012 q -0.65476,0 -1.17405,-0.21449 -0.508,-0.22578 -0.86925,-0.62089 -0.34995,-0.4064 -0.54186,-0.97084 -0.19191,-0.57574 -0.19191,-1.28694 0,-0.69991 0.18062,-1.26435 0.19191,-0.56445 0.54187,-0.95956 0.34995,-0.4064 0.85795,-0.62089 0.508,-0.22578 1.15147,-0.22578 0.68862,0 1.19662,0.23707 0.508,0.23707 0.83538,0.64347 0.32738,0.4064 0.48542,0.94826 0.16934,0.53058 0.16934,1.14018 v 0.47414 h -3.91725 v 0.14675 q 0,0.64347 0.36124,1.03858 0.36125,0.38382 1.07245,0.38382 0.54187,0 0.88053,-0.22577 0.34996,-0.22578 0.62089,-0.57574 l 0.77894,0.86925 q -0.36125,0.508 -0.99343,0.80151 -0.62089,0.28222 -1.44497,0.28222 z m -0.0226,-5.08 q -0.57574,0 -0.9144,0.38382 -0.33867,0.38382 -0.33867,0.99342 v 0.0903 h 2.41582 v -0.1016 q 0,-0.6096 -0.3048,-0.98213 -0.29351,-0.38382 -0.85795,-0.38382 z"
             id="path11647" />
        </g>
        <g
           aria-label="Findable"
           id="text32747-7-9-2-7-5-9"
           style="font-weight:600;font-size:11.2889px;line-height:1.25;font-family:'IBM Plex Sans';-inkscape-font-specification:'IBM Plex Sans Semi-Bold';letter-spacing:0px;word-spacing:0px;fill:#ffffff;stroke-width:0.264583"
           inkscape:transform-center-x="17.361147"
           inkscape:transform-center-y="0.47309923">
          <path
             d="m 89.178261,63.697632 v -7.879653 h 5.068716 v 1.320802 h -3.578581 v 1.907824 h 3.115736 v 1.320801 h -3.115736 v 3.330226 z"
             id="path11671" />
          <path
             d="m 96.324131,56.946869 q -0.451556,0 -0.654756,-0.2032 -0.191911,-0.2032 -0.191911,-0.519289 v -0.225778 q 0,-0.316089 0.191911,-0.51929 0.2032,-0.2032 0.654756,-0.2032 0.440267,0 0.643468,0.2032 0.2032,0.203201 0.2032,0.51929 v 0.225778 q 0,0.316089 -0.2032,0.519289 -0.203201,0.2032 -0.643468,0.2032 z m -0.722489,0.857957 h 1.444979 v 5.892806 h -1.444979 z"
             id="path11673" />
          <path
             d="m 98.717367,63.697632 v -5.892806 h 1.444983 v 0.982134 h 0.0564 q 0.18062,-0.474134 0.56445,-0.790223 0.39511,-0.327378 1.08373,-0.327378 0.9144,0 1.39982,0.598312 0.48543,0.598311 0.48543,1.704624 v 3.725337 H 102.3072 V 60.11905 q 0,-0.632178 -0.22578,-0.948267 -0.22578,-0.316089 -0.74507,-0.316089 -0.22578,0 -0.44027,0.06773 -0.2032,0.05644 -0.37253,0.180622 -0.15804,0.112889 -0.25964,0.293512 -0.1016,0.169333 -0.1016,0.4064 v 3.894671 z"
             id="path11675" />
          <path
             d="m 109.01284,62.715498 h -0.0564 q -0.15804,0.508 -0.59831,0.8128 -0.44027,0.304801 -1.02729,0.304801 -1.1176,0 -1.71591,-0.801512 -0.58702,-0.801512 -0.58702,-2.291647 0,-1.478846 0.58702,-2.269069 0.59831,-0.801512 1.71591,-0.801512 0.58702,0 1.02729,0.3048 0.44027,0.293512 0.59831,0.801512 h 0.0564 v -3.431825 h 1.44498 v 8.353786 h -1.44498 z m -1.2192,-0.07902 q 0.51929,0 0.86924,-0.248356 0.34996,-0.248355 0.34996,-0.7112 v -1.873958 q 0,-0.428978 -0.34996,-0.688623 -0.34995,-0.259644 -0.86924,-0.259644 -0.56445,0 -0.9144,0.383822 -0.33867,0.372534 -0.33867,1.004712 v 1.016001 q 0,0.632179 0.33867,1.004712 0.34995,0.372534 0.9144,0.372534 z"
             id="path11677" />
          <path
             d="m 116.46349,63.697632 q -0.47413,0 -0.75635,-0.270934 -0.27094,-0.282222 -0.33867,-0.745067 h -0.0677 q -0.14676,0.575734 -0.59831,0.869245 -0.45156,0.282223 -1.1176,0.282223 -0.90312,0 -1.38854,-0.474134 -0.48542,-0.474134 -0.48542,-1.264357 0,-0.914401 0.65475,-1.354668 0.65476,-0.451556 1.86267,-0.451556 h 1.00471 v -0.428978 q 0,-0.496712 -0.25964,-0.767646 -0.25964,-0.270933 -0.83538,-0.270933 -0.508,0 -0.82409,0.225778 -0.3048,0.214489 -0.51929,0.519289 l -0.85795,-0.767645 q 0.32737,-0.508 0.86924,-0.812801 0.54187,-0.316089 1.43369,-0.316089 1.19662,0 1.81751,0.541867 0.62089,0.541867 0.62089,1.557869 v 2.777069 h 0.58703 v 1.151468 z m -2.39324,-0.914401 q 0.48542,0 0.82409,-0.214489 0.33866,-0.214489 0.33866,-0.632179 v -0.778934 h -0.92569 q -1.12889,0 -1.12889,0.72249 v 0.191911 q 0,0.361245 0.22578,0.541867 0.23707,0.169334 0.66605,0.169334 z"
             id="path11679" />
          <path
             d="m 118.43903,55.343846 h 1.44498 v 3.431825 h 0.0452 q 0.15804,-0.508 0.59831,-0.801512 0.44027,-0.3048 1.02729,-0.3048 1.12889,0 1.71591,0.801512 0.59831,0.790223 0.59831,2.269069 0,1.490135 -0.59831,2.291647 -0.58702,0.801512 -1.71591,0.801512 -0.58702,0 -1.02729,-0.304801 -0.42898,-0.3048 -0.59831,-0.8128 h -0.0452 v 0.982134 h -1.44498 z m 2.65289,7.292629 q 0.56445,0 0.9144,-0.372534 0.34996,-0.372533 0.34996,-1.004712 v -1.016001 q 0,-0.632178 -0.34996,-1.004712 -0.34995,-0.383822 -0.9144,-0.383822 -0.51929,0 -0.86924,0.259644 -0.33867,0.259645 -0.33867,0.688623 v 1.873958 q 0,0.462845 0.33867,0.7112 0.34995,0.248356 0.86924,0.248356 z"
             id="path11681" />
          <path
             d="m 126.65733,63.697632 q -0.74506,0 -1.09502,-0.372534 -0.34996,-0.372534 -0.34996,-1.049868 v -6.931384 h 1.44498 v 7.202318 h 0.77894 v 1.151468 z"
             id="path11683" />
          <path
             d="m 130.91323,63.833099 q -0.65475,0 -1.17404,-0.214489 -0.508,-0.225778 -0.86925,-0.62089 -0.34995,-0.4064 -0.54187,-0.970845 -0.19191,-0.575734 -0.19191,-1.286935 0,-0.699912 0.18063,-1.264357 0.19191,-0.564445 0.54186,-0.959556 0.34996,-0.406401 0.85796,-0.62089 0.508,-0.225778 1.15147,-0.225778 0.68862,0 1.19662,0.237067 0.508,0.237067 0.83538,0.643467 0.32738,0.406401 0.48542,0.948268 0.16934,0.530578 0.16934,1.140179 v 0.474134 h -3.91725 v 0.146755 q 0,0.643468 0.36124,1.038579 0.36125,0.383823 1.07245,0.383823 0.54186,0 0.88053,-0.225778 0.34996,-0.225778 0.62089,-0.575734 l 0.77894,0.869245 q -0.36125,0.508001 -0.99343,0.801512 -0.62089,0.282223 -1.44498,0.282223 z m -0.0226,-5.080006 q -0.57573,0 -0.9144,0.383823 -0.33866,0.383823 -0.33866,0.993423 v 0.09031 h 2.41582 V 60.11905 q 0,-0.6096 -0.3048,-0.982134 -0.29351,-0.383823 -0.85796,-0.383823 z"
             id="path11685" />
        </g>
      </g>
      <g
         id="g18075"
         inkscape:label="text">
        <text
           xml:space="preserve"
           style="font-style:normal;font-variant:normal;font-weight:600;font-stretch:normal;font-size:11.2889px;line-height:1.25;font-family:'IBM Plex Sans';-inkscape-font-specification:'IBM Plex Sans Semi-Bold';letter-spacing:1.83885px;word-spacing:0px;fill:none;fill-opacity:1;stroke:none;stroke-width:0.264583"
           x="-227.29701"
           y="115.58178"
           id="text32747"
           transform="rotate(-90)"><tspan
             sodipodi:role="line"
             id="tspan58554"
             x="-227.29701"
             y="115.58178"
             style="font-style:normal;font-variant:normal;font-weight:600;font-stretch:normal;font-size:11.2889px;font-family:'IBM Plex Sans';-inkscape-font-specification:'IBM Plex Sans Semi-Bold';font-variant-ligatures:normal;font-variant-caps:normal;font-variant-numeric:normal;font-variant-east-asian:normal;baseline-shift:baseline;fill:none">FAIR</tspan></text>
        <text
           xml:space="preserve"
           style="font-style:normal;font-variant:normal;font-weight:600;font-stretch:normal;font-size:11.2889px;line-height:1.25;font-family:'IBM Plex Sans';-inkscape-font-specification:'IBM Plex Sans Semi-Bold';font-variant-ligatures:normal;font-variant-caps:normal;font-variant-numeric:normal;font-variant-east-asian:normal;letter-spacing:0px;word-spacing:0px;fill:none;fill-opacity:1;stroke:none;stroke-width:0.264583"
           x="113.61059"
           y="124.21233"
           id="text32747-7-9"
           inkscape:transform-center-x="17.361147"
           inkscape:transform-center-y="0.47309923"><tspan
             sodipodi:role="line"
             id="tspan85479"
             x="113.61059"
             y="124.21233"
             style="font-style:normal;font-variant:normal;font-weight:600;font-stretch:normal;font-size:11.2889px;font-family:'IBM Plex Sans';-inkscape-font-specification:'IBM Plex Sans Semi-Bold';fill:none">Accessible</tspan></text>
        <text
           xml:space="preserve"
           style="font-style:normal;font-variant:normal;font-weight:600;font-stretch:normal;font-size:11.2889px;line-height:1.25;font-family:'IBM Plex Sans';-inkscape-font-specification:'IBM Plex Sans Semi-Bold';font-variant-ligatures:normal;font-variant-caps:normal;font-variant-numeric:normal;font-variant-east-asian:normal;letter-spacing:0px;word-spacing:0px;fill:none;fill-opacity:1;stroke:none;stroke-width:0.264583"
           x="54.594524"
           y="124.21233"
           id="text32747-7-9-2"
           inkscape:transform-center-x="17.361147"
           inkscape:transform-center-y="0.47309923"><tspan
             sodipodi:role="line"
             id="tspan85479-1"
             x="54.594524"
             y="124.21233"
             style="font-style:normal;font-variant:normal;font-weight:600;font-stretch:normal;font-size:11.2889px;font-family:'IBM Plex Sans';-inkscape-font-specification:'IBM Plex Sans Semi-Bold';fill:none">Reusable</tspan></text>
        <text
           xml:space="preserve"
           style="font-style:normal;font-variant:normal;font-weight:600;font-stretch:normal;font-size:11.2889px;line-height:1.25;font-family:'IBM Plex Sans';-inkscape-font-specification:'IBM Plex Sans Semi-Bold';font-variant-ligatures:normal;font-variant-caps:normal;font-variant-numeric:normal;font-variant-east-asian:normal;letter-spacing:0px;word-spacing:0px;fill:none;fill-opacity:1;stroke:none;stroke-width:0.264583"
           x="74.954956"
           y="144.52217"
           id="text32747-7-9-2-7"
           inkscape:transform-center-x="17.361147"
           inkscape:transform-center-y="0.47309923"><tspan
             sodipodi:role="line"
             id="tspan93757"
             x="74.954956"
             y="144.52217">Interoperable</tspan></text>
        <text
           xml:space="preserve"
           style="font-style:normal;font-variant:normal;font-weight:600;font-stretch:normal;font-size:11.2889px;line-height:1.25;font-family:'IBM Plex Sans';-inkscape-font-specification:'IBM Plex Sans Semi-Bold';font-variant-ligatures:normal;font-variant-caps:normal;font-variant-numeric:normal;font-variant-east-asian:normal;letter-spacing:0px;word-spacing:0px;fill:none;fill-opacity:1;stroke:none;stroke-width:0.264583"
           x="88.275818"
           y="63.60516"
           id="text32747-7-9-2-7-5"
           inkscape:transform-center-x="17.361147"
           inkscape:transform-center-y="0.47309923"><tspan
             sodipodi:role="line"
             id="tspan93757-7"
             x="88.275818"
             y="63.60516">Findable</tspan></text>
        <text
           xml:space="preserve"
           transform="scale(0.26458333)"
           id="text104795"
           style="font-style:normal;font-weight:normal;font-size:40px;line-height:1.25;font-family:sans-serif;letter-spacing:0px;word-spacing:0px;white-space:pre;shape-inside:url(#rect104797);fill:#000000;fill-opacity:1;stroke:none" />
      </g>
    </g>
  </g>
</svg>
