<?xml version="1.0" encoding="UTF-8" standalone="no"?>
<svg
   xmlns:dc="http://purl.org/dc/elements/1.1/"
   xmlns:cc="http://creativecommons.org/ns#"
   xmlns:rdf="http://www.w3.org/1999/02/22-rdf-syntax-ns#"
   xmlns:svg="http://www.w3.org/2000/svg"
   xmlns="http://www.w3.org/2000/svg"
   viewBox="0 0 705.51263 475.97556"
   height="475.97556"
   width="705.51263"
   xml:space="preserve"
   id="svg2"
   version="1.1"><metadata
     id="metadata8"><rdf:RDF><cc:Work
         rdf:about=""><dc:format>image/svg+xml</dc:format><dc:type
           rdf:resource="http://purl.org/dc/dcmitype/StillImage" /><dc:title></dc:title></cc:Work></rdf:RDF></metadata><defs
     id="defs6"><clipPath
       id="clipPath44"
       clipPathUnits="userSpaceOnUse"><path
         id="path42"
         d="M 0,0 H 530 V 357 H 0 Z" /></clipPath><clipPath
       id="clipPath72"
       clipPathUnits="userSpaceOnUse"><path
         id="path70"
         d="M 0,0 H 530 V 357 H 0 Z" /></clipPath><clipPath
       id="clipPath94"
       clipPathUnits="userSpaceOnUse"><path
         id="path92"
         d="M 0,0 H 530 V 357 H 0 Z" /></clipPath><clipPath
       id="clipPath118"
       clipPathUnits="userSpaceOnUse"><path
         id="path116"
         d="M 0,0 H 530 V 357 H 0 Z" /></clipPath><clipPath
       id="clipPath138"
       clipPathUnits="userSpaceOnUse"><path
         id="path136"
         d="M 0,0 H 530 V 357 H 0 Z" /></clipPath><clipPath
       id="clipPath178"
       clipPathUnits="userSpaceOnUse"><path
         id="path176"
         d="M 0,0 H 530 V 357 H 0 Z" /></clipPath><clipPath
       id="clipPath224"
       clipPathUnits="userSpaceOnUse"><path
         id="path222"
         d="M 0,0 H 530 V 357 H 0 Z" /></clipPath><clipPath
       id="clipPath266"
       clipPathUnits="userSpaceOnUse"><path
         id="path264"
         d="M 0,0 H 530 V 357 H 0 Z" /></clipPath></defs><g
     transform="matrix(1.3333333,0,0,1.3333333,0,1.6566055e-5)"
     id="g10"><g
       id="g12"><g
         id="g14"><path
           id="path16"
           style="fill:#a2d98d;fill-opacity:1;fill-rule:evenodd;stroke:#70ad47;stroke-width:0.53203303;stroke-linecap:butt;stroke-linejoin:miter;stroke-miterlimit:10;stroke-dasharray:none;stroke-opacity:1"
           d="m 254.445,288.082 h 146.441 v 68.633 H 254.445 Z" /></g><g
         id="g18"><path
           id="path20"
           style="fill:#ffd973;fill-opacity:1;fill-rule:evenodd;stroke:#ffc000;stroke-width:0.53203303;stroke-linecap:butt;stroke-linejoin:miter;stroke-miterlimit:10;stroke-dasharray:none;stroke-opacity:1"
           d="M 38.84,172.633 H 98.426 L 137,211.203 v 38.574 H 0.266 v -38.574 z" /></g><g
         id="g22"><path
           id="path24"
           style="fill:#9dc2f2;fill-opacity:1;fill-rule:evenodd;stroke:#5b9bd5;stroke-width:0.53203303;stroke-linecap:butt;stroke-linejoin:miter;stroke-miterlimit:10;stroke-dasharray:none;stroke-opacity:1"
           d="m 254.445,96.031 c 0,-16.015 12.989,-29.008 29.008,-29.008 h 82.043 c 16.016,0 29.008,12.993 29.008,29.008 v 16.071 c 0,16.015 -12.992,29.007 -29.008,29.007 h -82.043 c -16.019,0 -29.008,-12.992 -29.008,-29.007 z" /></g><path
         id="path26"
         style="fill:#70ad47;fill-opacity:1;fill-rule:nonzero;stroke:none"
         d="m 254.457,323.332 -2.773,-0.09 -2.793,-0.234 -2.782,-0.399 -2.761,-0.543 -2.746,-0.699 -2.707,-0.828 -2.668,-0.965 -2.641,-1.097 -2.606,-1.207 -2.535,-1.344 -2.484,-1.453 -2.426,-1.551 -2.375,-1.652 -2.281,-1.762 -2.219,-1.852 -2.125,-1.937 -2.051,-2.02 -1.953,-2.094 -1.859,-2.171 -1.754,-2.239 -1.641,-2.297 -1.527,-2.359 -1.422,-2.418 -1.285,-2.457 -1.152,-2.508 -1.02,-2.539 -0.875,-2.57 -0.742,-2.606 -0.578,-2.613 -0.418,-2.648 -0.258,-2.653 -0.086,-2.636 -0.078,-2.594 v 0.055 l -0.254,-2.606 v 0.059 l -0.402,-2.594 0.015,0.043 -0.578,-2.563 0.012,0.047 -0.719,-2.562 0.02,0.047 -0.864,-2.528 0.012,0.043 -1.008,-2.492 0.024,0.031 -1.145,-2.461 0.024,0.036 -1.262,-2.418 0.019,0.035 -1.394,-2.375 0.019,0.035 -1.507,-2.328 0.023,0.035 -1.617,-2.274 0.019,0.032 -1.738,-2.203 0.024,0.019 -1.832,-2.137 0.023,0.02 -1.93,-2.059 0.024,0.02 -2.016,-1.992 0.031,0.019 -2.105,-1.906 0.023,0.023 -2.183,-1.828 0.031,0.02 -2.273,-1.738 0.023,0.019 -2.328,-1.641 0.035,0.024 -2.394,-1.531 0.031,0.023 -2.461,-1.43 0.035,0.024 -2.516,-1.332 0.043,0.023 -2.558,-1.199 0.043,0.016 -2.606,-1.078 0.035,0.015 -2.64,-0.945 0.035,0.015 -2.66,-0.82 0.066,0.012 -3.734,-0.789 0.355,-1.696 3.778,0.801 2.726,0.84 2.684,0.965 2.636,1.098 2.594,1.207 2.539,1.343 2.492,1.45 2.43,1.554 2.348,1.649 2.308,1.761 2.215,1.852 2.129,1.941 2.039,2.016 1.949,2.098 1.864,2.172 1.75,2.238 1.652,2.293 1.52,2.363 1.418,2.414 1.285,2.461 1.152,2.504 1.031,2.539 0.875,2.574 0.735,2.602 0.574,2.617 0.422,2.648 0.265,2.649 0.079,2.641 0.089,2.593 -0.015,-0.054 0.258,2.601 -0.012,-0.054 0.418,2.593 -0.012,-0.043 0.567,2.559 -0.012,-0.043 0.719,2.558 -0.012,-0.042 0.863,2.527 -0.019,-0.043 1.007,2.492 -0.011,-0.031 1.129,2.457 -0.012,-0.031 1.262,2.418 -0.02,-0.036 1.395,2.372 -0.024,-0.032 1.508,2.328 -0.02,-0.035 1.618,2.274 -0.024,-0.035 1.731,2.207 -0.024,-0.024 1.832,2.141 -0.023,-0.024 1.929,2.063 -0.023,-0.024 2.016,1.996 -0.02,-0.019 2.106,1.906 -0.036,-0.023 2.196,1.828 -0.031,-0.02 2.261,1.739 -0.035,-0.024 2.34,1.641 -0.035,-0.02 2.394,1.528 -0.019,-0.02 2.449,1.43 -0.035,-0.024 2.504,1.332 -0.032,-0.023 2.559,1.195 -0.031,-0.011 2.605,1.074 -0.047,-0.012 2.641,0.941 -0.047,-0.011 2.672,0.82 -0.043,-0.012 2.703,0.688 -0.043,-0.012 2.715,0.543 -0.043,-0.016 2.734,0.391 h -0.043 l 2.739,0.231 h -0.043 l 2.746,0.078 z m -107.008,-105.289 -10.383,-6.773 11.637,-4.243 z" /><path
         id="path28"
         style="fill:#5b9bd5;fill-opacity:1;fill-rule:nonzero;stroke:none"
         d="m 254.457,103.203 -8.715,0.098 -8.699,0.289 -8.68,0.488 -8.621,0.676 -8.547,0.844 -8.468,1.007 -8.368,1.176 -8.246,1.34 -8.113,1.473 -7.961,1.64 -7.793,1.762 -7.59,1.91 -7.394,2.028 -7.184,2.148 -6.937,2.262 -6.684,2.371 -6.418,2.461 -6.129,2.574 -5.82,2.66 -5.496,2.735 -5.176,2.816 -4.801,2.906 -4.445,2.945 -4.043,3.028 -3.649,3.07 -3.226,3.137 -2.781,3.18 -2.348,3.25 -1.543,3.269 1.574,0.731 1.496,-3.192 -0.078,0.145 2.274,-3.16 -0.043,0.066 2.726,-3.125 -0.047,0.055 3.184,-3.09 -0.055,0.043 3.614,-3.039 -0.047,0.035 4.011,-2.992 -0.043,0.019 4.411,-2.937 -0.032,0.023 4.778,-2.871 -0.035,0.012 5.132,-2.793 -0.019,0.015 5.461,-2.726 -0.02,0.012 5.797,-2.641 -0.023,0.016 6.097,-2.563 -0.023,0.012 6.394,-2.461 h -0.019 l 6.66,-2.36 -0.023,0.012 6.929,-2.25 h -0.023 l 7.16,-2.137 h -0.02 l 7.372,-2.031 -0.024,0.016 7.582,-1.899 h -0.012 l 7.77,-1.761 h -0.023 l 7.949,-1.629 -0.024,0.011 8.102,-1.484 h -0.02 l 8.223,-1.328 -0.012,0.012 8.344,-1.188 h -0.019 l 8.445,-0.996 h -0.012 l 8.535,-0.844 h -0.023 l 8.613,-0.664 h -0.023 l 8.656,-0.488 h -0.02 l 8.688,-0.289 h -0.02 l 8.7,-0.098 z M 66.328,160.562 68.699,172.723 77,163.531 Z" /><path
         id="path30"
         style="fill:#5b9bd5;fill-opacity:1;fill-rule:nonzero;stroke:none"
         d="m 394.457,103.27 0.934,-0.055 -0.102,0.012 0.93,-0.18 -0.086,0.023 0.929,-0.277 -0.089,0.035 0.922,-0.398 -0.079,0.043 0.922,-0.5 -0.058,0.035 0.898,-0.59 -0.055,0.035 0.899,-0.687 -0.043,0.031 0.887,-0.774 -0.047,0.032 0.875,-0.875 -0.032,0.047 0.844,-0.965 -0.023,0.019 0.844,-1.031 -0.036,0.047 0.821,-1.133 -0.024,0.035 0.789,-1.187 -0.011,0.023 0.773,-1.254 -0.019,0.035 0.742,-1.332 -0.024,0.024 0.723,-1.387 -0.016,0.024 0.688,-1.454 -0.012,0.036 0.645,-1.508 v 0.019 l 0.621,-1.562 -0.016,0.023 0.59,-1.597 -0.016,0.035 1.067,-3.336 -0.012,0.043 0.906,-3.481 -0.011,0.043 0.722,-3.601 v 0.023 l 0.297,-1.828 -0.012,0.02 0.243,-1.852 v 0.023 l 0.191,-1.871 v 0.02 l 0.133,-1.871 v 0.019 l 0.097,-1.894 v 0.035 l 0.024,-1.899 v 0.047 l -0.067,-1.898 v 0.059 l -0.191,-1.887 0.016,0.054 -0.325,-1.871 0.016,0.055 -0.445,-1.871 0.011,0.043 -0.543,-1.863 0.016,0.054 -0.668,-1.84 0.024,0.047 -0.766,-1.82 0.023,0.047 -0.875,-1.785 0.02,0.031 -0.973,-1.762 0.02,0.035 -1.063,-1.73 0.02,0.043 -1.152,-1.695 0.023,0.035 -1.254,-1.641 0.023,0.02 -1.32,-1.594 0.024,0.019 -1.399,-1.55 0.024,0.023 -1.485,-1.496 0.031,0.02 -1.55,-1.45 0.035,0.02 -1.621,-1.383 0.035,0.02 -1.688,-1.328 0.036,0.019 -1.739,-1.262 0.02,0.024 -1.774,-1.188 0.036,0.024 -1.84,-1.133 0.031,0.023 -1.883,-1.031 0.02,0.012 -1.914,-0.965 0.043,0.023 -1.961,-0.863 0.019,0.012 -1.992,-0.789 0.043,0.011 -2.02,-0.683 0.036,0.012 -2.039,-0.59 0.031,0.015 -2.071,-0.5 0.043,0.012 -2.074,-0.398 0.047,0.011 -2.094,-0.277 h 0.043 l -2.105,-0.176 h 0.043 l -2.106,-0.054 h 0.043 l -2.105,0.066 h 0.047 l -2.11,0.176 h 0.059 l -2.098,0.312 0.047,-0.015 -2.086,0.422 0.043,-0.012 -2.058,0.543 0.043,-0.012 -2.051,0.641 0.043,-0.02 -2.028,0.754 0.036,-0.023 -1.985,0.855 0.031,-0.023 -1.961,0.953 0.036,-0.012 -1.93,1.031 0.043,-0.023 -1.883,1.129 0.031,-0.02 -1.84,1.207 0.036,-0.023 -1.786,1.289 0.024,-0.024 -1.731,1.364 0.036,-0.024 -1.688,1.442 0.035,-0.02 -1.621,1.496 0.024,-0.023 -1.551,1.574 0.031,-0.035 -1.473,1.633 0.024,-0.024 -1.41,1.684 0.023,-0.02 -1.332,1.727 0.024,-0.02 -1.231,1.774 0.012,-0.035 -1.164,1.828 0.023,-0.031 -1.062,1.871 0.019,-0.032 -0.976,1.895 0.023,-0.035 -0.875,1.941 0.024,-0.043 -0.766,1.973 0.031,-0.102 -0.597,2.305 -1.672,-0.418 0.609,-2.363 0.785,-2.039 0.887,-1.985 1,-1.937 1.086,-1.907 1.183,-1.863 1.254,-1.808 1.352,-1.762 1.43,-1.719 1.496,-1.66 1.586,-1.598 1.64,-1.527 1.696,-1.465 1.761,-1.387 1.821,-1.308 1.859,-1.219 1.918,-1.152 1.961,-1.051 1.996,-0.965 2.027,-0.863 2.075,-0.766 2.082,-0.644 2.109,-0.555 2.125,-0.43 2.141,-0.324 2.16,-0.187 2.164,-0.067 2.16,0.067 2.141,0.175 2.136,0.289 2.129,0.399 2.106,0.512 2.086,0.597 2.058,0.699 2.031,0.809 1.993,0.875 1.953,0.988 1.929,1.039 1.86,1.145 1.808,1.207 1.774,1.273 1.707,1.352 1.64,1.422 1.575,1.472 1.496,1.532 1.429,1.582 1.352,1.629 1.262,1.687 1.187,1.719 1.086,1.762 0.988,1.804 0.895,1.821 0.777,1.859 0.688,1.887 0.566,1.906 0.453,1.918 0.321,1.937 0.199,1.942 0.066,1.949 -0.031,1.918 -0.09,1.93 -0.144,1.894 -0.188,1.895 -0.242,1.887 -0.313,1.859 -0.73,3.648 -0.922,3.524 -1.074,3.383 -0.598,1.628 -0.633,1.583 -0.652,1.531 -0.711,1.472 -0.719,1.422 -0.765,1.352 -0.789,1.285 -0.809,1.219 -0.84,1.152 -0.867,1.067 -0.875,0.996 -0.91,0.91 -0.918,0.82 -0.953,0.731 -0.965,0.621 -0.977,0.543 -1.007,0.422 -1.02,0.308 -1.043,0.188 -0.973,0.066 z m -62.703,-46.2 -7.281,10.02 -3.645,-11.848 z" /><path
         id="path32"
         style="fill:#70ad47;fill-opacity:1;fill-rule:nonzero;stroke:none"
         d="m 298.98,149.234 -1.308,1.485 -3.879,4.488 0.012,-0.012 -3.789,4.489 0.011,-0.012 -3.679,4.469 0.011,-0.016 -3.523,4.469 0.012,-0.012 -1.696,2.227 v -0.012 l -1.652,2.215 0.012,-0.012 -1.606,2.227 0.012,-0.012 -1.551,2.219 0.012,-0.016 -1.484,2.207 0.011,-0.012 -1.429,2.207 0.011,-0.015 -1.363,2.207 0.012,-0.024 -1.285,2.207 0.015,-0.011 -1.23,2.195 0.011,-0.024 -1.132,2.196 0.015,-0.024 -1.066,2.184 0.012,-0.02 -0.973,2.172 0.012,-0.023 -0.887,2.172 0.012,-0.02 -0.797,2.172 0.011,-0.035 -0.71,2.164 0.015,-0.035 -0.601,2.152 0.015,-0.035 -0.512,2.148 0.012,-0.031 -0.398,2.141 v -0.047 l -0.278,2.141 v -0.043 l -0.175,2.125 0.011,-0.067 -0.035,2.153 v -0.079 l 0.168,2.196 -0.012,-0.067 0.309,2.227 v -0.067 l 0.477,2.25 -0.012,-0.043 0.621,2.282 -0.012,-0.043 0.766,2.293 -0.016,-0.043 0.887,2.316 -0.012,-0.035 0.996,2.328 -0.011,-0.031 1.109,2.328 -0.012,-0.023 1.207,2.339 -0.011,-0.023 1.285,2.34 -0.012,-0.024 1.363,2.329 -0.011,-0.024 1.429,2.317 -0.015,-0.012 1.488,2.297 -0.016,-0.016 3.082,4.523 -0.011,-0.011 3.172,4.41 v -0.012 l 3.167,4.258 v -0.016 l 1.563,2.063 1.543,2.019 v -0.015 l 1.504,1.965 1.441,1.882 1.399,1.829 1.32,1.75 1.25,1.699 1.152,1.605 1.067,1.532 0.941,1.437 0.832,1.363 0.696,1.266 0.601,1.164 0.543,1.062 0.488,1 0.453,0.918 0.411,0.844 0.367,0.785 0.34,0.723 0.289,0.664 0.254,0.598 0.222,0.531 0.2,0.5 0.156,0.445 0.144,0.399 0.098,0.363 0.133,0.621 0.015,0.602 -0.234,0.64 -0.645,0.399 -0.609,-0.055 -0.418,-0.145 -0.39,-0.199 -0.665,-0.433 0.911,-1.461 0.652,0.41 -0.055,-0.035 0.301,0.156 -0.113,-0.043 0.254,0.086 -0.219,-0.043 0.207,0.012 -0.52,0.121 0.145,-0.086 -0.356,0.441 0.067,-0.199 -0.043,0.313 -0.012,-0.356 0.02,0.164 -0.11,-0.519 0.012,0.054 -0.086,-0.32 0.012,0.043 -0.121,-0.363 v 0.011 l -0.145,-0.433 0.012,0.047 -0.188,-0.477 -0.222,-0.535 0.012,0.016 -0.254,-0.579 0.011,0.012 -0.289,-0.64 v 0.011 l -0.332,-0.722 -0.363,-0.774 0.012,0.012 -0.411,-0.844 -0.457,-0.906 h 0.016 l -0.5,-0.988 0.012,0.011 -0.543,-1.062 -0.586,-1.153 0.012,0.024 -0.688,-1.231 0.024,0.032 -0.809,-1.328 0.012,0.019 -0.934,-1.43 0.016,0.024 -1.043,-1.508 v 0.012 l -1.153,-1.606 0.012,0.012 -1.242,-1.684 0.012,0.012 -1.328,-1.742 -1.387,-1.828 -1.442,-1.883 -1.507,-1.961 -1.539,-2.008 -1.575,-2.074 -3.179,-4.254 -3.184,-4.433 -3.102,-4.547 -1.484,-2.328 -1.441,-2.325 -1.375,-2.339 -1.297,-2.364 -1.219,-2.359 -1.133,-2.348 -1.008,-2.363 -0.898,-2.34 -0.785,-2.336 -0.633,-2.328 -0.5,-2.305 -0.32,-2.273 -0.164,-2.262 0.031,-2.207 0.176,-2.183 0.289,-2.184 0.41,-2.184 0.512,-2.183 0.609,-2.192 0.719,-2.195 0.808,-2.195 0.899,-2.207 0.988,-2.203 1.074,-2.207 1.153,-2.215 1.23,-2.219 1.297,-2.219 1.375,-2.215 1.43,-2.226 1.496,-2.231 1.551,-2.226 1.621,-2.227 1.648,-2.23 1.707,-2.239 3.535,-4.476 3.684,-4.488 3.801,-4.493 3.89,-4.488 1.309,-1.496 z m -5.542,-3.402 11.484,-4.656 -3.16,11.98 z" /><path
         id="path34"
         style="fill:#5b9bd5;fill-opacity:1;fill-rule:nonzero;stroke:none"
         d="m 351.031,282.219 1.321,-1.496 -0.016,0.011 3.879,-4.488 -0.012,0.016 3.793,-4.481 -0.016,0.012 3.68,-4.477 -0.012,0.024 3.536,-4.469 -0.012,0.012 1.695,-2.227 -0.012,0.012 1.665,-2.227 -0.012,0.012 1.605,-2.226 -0.011,0.011 1.55,-2.218 -0.011,0.015 1.484,-2.207 -0.012,0.012 1.418,-2.203 v 0.011 l 1.364,-2.207 -0.012,0.024 1.285,-2.207 -0.012,0.012 1.219,-2.192 -0.012,0.02 1.141,-2.184 -0.012,0.024 1.063,-2.184 -0.012,0.019 0.977,-2.183 -0.016,0.023 0.887,-2.172 -0.012,0.032 0.797,-2.172 -0.012,0.035 0.711,-2.16 -0.012,0.031 0.598,-2.16 -0.012,0.031 0.508,-2.137 -0.012,0.043 0.387,-2.152 v 0.035 l 0.289,-2.129 v 0.047 l 0.168,-2.129 v 0.055 l 0.02,-2.141 v 0.067 l -0.157,-2.184 0.016,0.055 -0.324,-2.215 0.015,0.066 -0.476,-2.261 0.012,0.054 -0.622,-2.281 0.012,0.043 -0.765,-2.293 0.015,0.043 -0.887,-2.316 0.012,0.035 -1,-2.328 0.016,0.031 -1.11,-2.328 0.012,0.023 -1.207,-2.34 0.012,0.024 -1.285,-2.34 0.011,0.023 -1.363,-2.328 0.012,0.024 -1.43,-2.317 v 0.012 l -1.473,-2.305 0.012,0.02 -3.082,-4.531 0.012,0.019 -3.18,-4.41 0.012,0.012 -3.168,-4.266 v 0.012 l -1.574,-2.063 h 0.011 l -1.539,-2.004 -1.507,-1.953 -1.454,-1.882 -1.386,-1.84 -1.328,-1.754 -1.243,-1.684 -1.164,-1.605 -1.05,-1.543 -0.946,-1.442 -0.828,-1.363 -0.699,-1.25 -0.598,-1.164 -0.543,-1.074 -0.5,-0.989 -0.445,-0.918 -0.41,-0.843 -0.375,-0.789 -0.332,-0.731 -0.301,-0.652 -0.254,-0.602 -0.223,-0.543 -0.187,-0.484 -0.168,-0.445 -0.133,-0.399 -0.097,-0.379 -0.133,-0.617 -0.012,-0.59 0.23,-0.64 0.645,-0.403 0.598,0.047 0.433,0.156 0.375,0.2 0.676,0.418 -0.918,1.476 -0.644,-0.41 0.054,0.031 -0.297,-0.164 0.11,0.055 -0.254,-0.09 0.222,0.047 -0.211,-0.016 0.52,-0.133 -0.156,0.102 0.367,-0.453 -0.078,0.207 0.055,-0.309 0.015,0.344 -0.023,-0.156 0.109,0.523 -0.012,-0.058 0.09,0.324 -0.011,-0.047 0.121,0.367 v -0.011 l 0.144,0.421 -0.015,-0.035 0.191,0.477 0.219,0.531 -0.012,-0.019 0.246,0.585 v -0.011 l 0.285,0.64 v -0.011 l 0.332,0.711 0.367,0.785 -0.011,-0.012 0.41,0.844 v -0.016 l 0.441,0.922 0.489,0.988 v -0.015 l 0.543,1.066 0.589,1.141 -0.015,-0.024 0.679,1.231 -0.015,-0.032 0.808,1.329 -0.011,-0.02 0.933,1.43 -0.015,-0.016 1.043,1.508 -0.012,-0.012 1.152,1.598 v -0.012 l 1.242,1.684 -0.011,-0.012 1.328,1.75 h -0.012 l 1.395,1.828 h -0.012 l 1.453,1.887 1.508,1.949 1.527,2.004 1.586,2.074 3.184,4.27 3.179,4.433 3.102,4.543 1.488,2.317 1.438,2.328 1.375,2.348 1.297,2.363 1.218,2.347 1.133,2.364 1.008,2.359 0.898,2.34 0.778,2.34 0.64,2.324 0.489,2.309 0.332,2.269 0.156,2.25 -0.023,2.219 -0.176,2.184 -0.301,2.171 -0.398,2.184 -0.508,2.184 -0.61,2.207 -0.722,2.191 -0.809,2.195 -0.898,2.196 -0.985,2.218 -1.078,2.204 -1.152,2.207 -1.231,2.214 -1.297,2.219 -1.375,2.215 -1.429,2.23 -1.496,2.227 -1.551,2.227 -1.617,2.23 -1.664,2.238 -1.696,2.239 -3.547,4.476 -3.679,4.481 -3.801,4.488 -3.879,4.488 -1.32,1.496 z m 5.543,3.402 -11.484,4.656 3.168,-11.98 z" /><g
         id="g36"><g
           id="g38"><g
             clip-path="url(#clipPath44)"
             id="g40"><g
               id="g46"><path
                 id="path48"
                 style="fill:#000000;fill-opacity:1;fill-rule:nonzero;stroke:none"
                 d="m 304.699,329.926 h -2.285 c 0,-0.485 -0.457,-2.008 -1.367,-4.567 h -6.258 c -0.898,2.524 -1.348,4.047 -1.348,4.567 h -2.187 c 0,-0.27 0.93,-2.578 2.797,-6.93 1.863,-4.359 2.797,-6.758 2.797,-7.191 h 2.515 c 0,0.425 0.891,2.785 2.668,7.082 1.781,4.293 2.668,6.64 2.668,7.039 z m -4.152,-5.988 c -1.699,-4.243 -2.547,-6.5 -2.547,-6.766 h -0.121 c 0,0.223 -0.879,2.48 -2.637,6.766 z" /><path
                 id="path50"
                 style="fill:#000000;fill-opacity:1;fill-rule:nonzero;stroke:none"
                 d="m 314.441,328.266 -0.105,1.453 c -0.586,0.332 -1.371,0.5 -2.356,0.5 -1.871,0 -3.304,-0.516 -4.292,-1.551 -0.993,-1.035 -1.489,-2.281 -1.489,-3.742 0,-1.547 0.524,-2.879 1.563,-3.992 1.043,-1.114 2.418,-1.668 4.133,-1.668 0.859,0 1.562,0.086 2.105,0.257 l -0.293,1.704 c -0.762,-0.282 -1.531,-0.422 -2.312,-0.422 -1.028,0 -1.844,0.359 -2.45,1.074 -0.609,0.715 -0.91,1.613 -0.91,2.687 0,1.172 0.36,2.149 1.082,2.93 0.723,0.781 1.746,1.172 3.071,1.172 0.542,0 1.292,-0.133 2.253,-0.402 z" /><path
                 id="path52"
                 style="fill:#000000;fill-opacity:1;fill-rule:nonzero;stroke:none"
                 d="m 322.32,328.43 -0.132,1.41 c -0.571,0.207 -1.11,0.312 -1.614,0.312 -1.301,0 -2.191,-0.328 -2.668,-0.984 -0.476,-0.668 -0.715,-1.852 -0.715,-3.559 0,-1.105 0.004,-2.55 0.02,-4.328 -0.406,0 -1,0.024 -1.789,0.067 l 0.066,-1.575 c 0.684,0.043 1.301,0.067 1.844,0.067 0,-0.434 0.035,-1.465 0.106,-3.094 l 1.703,-0.172 c -0.121,1.52 -0.184,2.606 -0.184,3.266 0.707,0 1.75,-0.035 3.125,-0.11 l -0.078,1.618 c -1.301,-0.043 -2.344,-0.067 -3.133,-0.067 -0.016,1.094 -0.023,2.321 -0.023,3.688 0,1.488 0.156,2.476 0.468,2.961 0.317,0.476 0.903,0.715 1.758,0.715 0.281,0 0.696,-0.071 1.246,-0.215 z" /><path
                 id="path54"
                 style="fill:#000000;fill-opacity:1;fill-rule:nonzero;stroke:none"
                 d="m 326.402,329.926 h -1.964 c 0.101,-1.446 0.152,-3.098 0.152,-4.957 0,-2.09 -0.125,-3.844 -0.379,-5.262 l 2.168,-0.293 c -0.086,1.512 -0.129,3.363 -0.129,5.555 0,1.734 0.051,3.386 0.152,4.957 z m 0.457,-13.559 c 0,0.371 -0.121,0.692 -0.359,0.965 -0.238,0.27 -0.574,0.402 -1.008,0.402 -0.371,0 -0.66,-0.117 -0.867,-0.347 -0.203,-0.239 -0.305,-0.524 -0.305,-0.856 0,-0.363 0.121,-0.676 0.368,-0.945 0.246,-0.266 0.585,-0.398 1.019,-0.398 0.355,0 0.633,0.117 0.836,0.355 0.211,0.23 0.316,0.508 0.316,0.824 z" /><path
                 id="path56"
                 style="fill:#000000;fill-opacity:1;fill-rule:nonzero;stroke:none"
                 d="m 338.824,319.621 c 0,0.356 -0.734,2.067 -2.203,5.133 -1.461,3.058 -2.191,4.781 -2.191,5.172 h -1.453 c 0,-0.508 -0.649,-2.274 -1.942,-5.305 -1.289,-3.035 -1.93,-4.703 -1.93,-5 h 2.102 c 0,0.348 0.473,1.727 1.41,4.133 0.942,2.406 1.41,3.785 1.41,4.133 h 0.098 c 0,-0.332 0.445,-1.66 1.336,-3.981 0.894,-2.32 1.344,-3.75 1.344,-4.285 z" /><path
                 id="path58"
                 style="fill:#000000;fill-opacity:1;fill-rule:nonzero;stroke:none"
                 d="m 342.883,329.926 h -1.961 c 0.101,-1.446 0.152,-3.098 0.152,-4.957 0,-2.09 -0.129,-3.844 -0.383,-5.262 l 2.172,-0.293 c -0.09,1.512 -0.133,3.363 -0.133,5.555 0,1.734 0.051,3.386 0.153,4.957 z m 0.457,-13.559 c 0,0.371 -0.121,0.692 -0.36,0.965 -0.238,0.27 -0.574,0.402 -1.007,0.402 -0.368,0 -0.657,-0.117 -0.868,-0.347 -0.203,-0.239 -0.304,-0.524 -0.304,-0.856 0,-0.363 0.125,-0.676 0.371,-0.945 0.242,-0.266 0.582,-0.398 1.019,-0.398 0.352,0 0.633,0.117 0.832,0.355 0.211,0.23 0.317,0.508 0.317,0.824 z" /><path
                 id="path60"
                 style="fill:#000000;fill-opacity:1;fill-rule:nonzero;stroke:none"
                 d="m 352.484,328.43 -0.129,1.41 c -0.574,0.207 -1.113,0.312 -1.617,0.312 -1.3,0 -2.191,-0.328 -2.668,-0.984 -0.476,-0.668 -0.715,-1.852 -0.715,-3.559 0,-1.105 0.004,-2.55 0.02,-4.328 -0.406,0 -1,0.024 -1.789,0.067 l 0.066,-1.575 c 0.688,0.043 1.301,0.067 1.844,0.067 0,-0.434 0.035,-1.465 0.106,-3.094 l 1.703,-0.172 c -0.121,1.52 -0.184,2.606 -0.184,3.266 0.711,0 1.75,-0.035 3.125,-0.11 l -0.078,1.618 c -1.301,-0.043 -2.344,-0.067 -3.133,-0.067 -0.015,1.094 -0.023,2.321 -0.023,3.688 0,1.488 0.156,2.476 0.468,2.961 0.317,0.476 0.903,0.715 1.758,0.715 0.282,0 0.696,-0.071 1.246,-0.215 z" /><path
                 id="path62"
                 style="fill:#000000;fill-opacity:1;fill-rule:nonzero;stroke:none"
                 d="m 363.02,319.621 c 0,0.465 -0.547,1.938 -1.637,4.426 -1.25,2.844 -2.028,4.844 -2.332,6.008 -0.5,1.886 -0.961,3.09 -1.391,3.601 -0.578,0.707 -1.605,1.063 -3.09,1.063 l -0.086,-1.52 c 0.903,0 1.657,-0.304 2.254,-0.922 0.602,-0.613 0.903,-1.382 0.903,-2.308 0,-0.801 -0.664,-2.711 -1.996,-5.727 -1.333,-3.015 -1.997,-4.554 -1.997,-4.621 h 2.247 c 0,0.195 0.457,1.512 1.367,3.949 0.91,2.438 1.367,3.938 1.367,4.5 h 0.105 c 0,-0.468 0.383,-1.832 1.153,-4.09 0.773,-2.253 1.16,-3.707 1.16,-4.359 z" /></g></g></g></g><g
         id="g64"><g
           id="g66"><g
             clip-path="url(#clipPath72)"
             id="g68"><g
               id="g74"><path
                 id="path76"
                 style="fill:#000000;fill-opacity:1;fill-rule:nonzero;stroke:none"
                 d="m 53.332,228.34 h -2.293 c 0,-0.485 -0.453,-2.008 -1.367,-4.57 h -6.266 c -0.898,2.527 -1.347,4.05 -1.347,4.57 h -2.192 c 0,-0.266 0.934,-2.578 2.801,-6.938 1.867,-4.367 2.801,-6.765 2.801,-7.199 h 2.519 c 0,0.426 0.891,2.789 2.672,7.09 1.781,4.301 2.672,6.648 2.672,7.047 z m -4.16,-5.992 c -1.699,-4.25 -2.551,-6.508 -2.551,-6.778 H 46.5 c 0,0.227 -0.879,2.485 -2.637,6.778 z" /><path
                 id="path78"
                 style="fill:#000000;fill-opacity:1;fill-rule:nonzero;stroke:none"
                 d="m 65.398,216.656 -0.171,1.5 c -1.348,0 -2.09,0.215 -2.227,0.649 v 0.109 c 0.461,0.566 0.695,1.211 0.695,1.934 0,1.129 -0.375,2.062 -1.121,2.8 -0.738,0.731 -1.883,1.098 -3.429,1.098 -0.688,0 -1.235,-0.07 -1.641,-0.219 -0.356,0.254 -0.531,0.571 -0.531,0.946 0,0.465 0.211,0.773 0.629,0.925 0.535,0.2 1.656,0.301 3.355,0.301 2.75,0 4.125,0.914 4.125,2.739 0,1.304 -0.535,2.382 -1.605,3.234 -1.071,0.855 -2.457,1.281 -4.161,1.281 -1.742,0 -2.988,-0.316 -3.734,-0.953 -0.738,-0.629 -1.109,-1.391 -1.109,-2.281 0,-0.813 0.183,-1.461 0.543,-1.953 0.371,-0.493 0.828,-0.797 1.371,-0.914 v -0.098 c -0.575,-0.274 -0.86,-0.805 -0.86,-1.586 0,-0.707 0.364,-1.332 1.086,-1.867 v -0.086 c -0.383,-0.188 -0.75,-0.508 -1.097,-0.957 -0.348,-0.449 -0.52,-1.004 -0.52,-1.672 0,-1.152 0.379,-2.09 1.141,-2.813 0.758,-0.722 1.859,-1.085 3.301,-1.085 1.179,0 2.105,0.214 2.781,0.64 h 0.117 c 0.23,-1.223 0.84,-1.836 1.824,-1.836 0.535,0 0.949,0.055 1.238,0.164 z m -1.945,13.52 c 0,-0.68 -0.25,-1.16 -0.746,-1.446 -0.492,-0.273 -1.426,-0.41 -2.793,-0.41 -0.926,0 -1.773,-0.043 -2.539,-0.132 -0.883,0.429 -1.324,1.054 -1.324,1.878 0,1.766 1.156,2.649 3.472,2.649 1.211,0 2.165,-0.235 2.868,-0.703 0.711,-0.473 1.062,-1.082 1.062,-1.836 z m -1.508,-8.883 c 0,-0.797 -0.254,-1.402 -0.761,-1.824 -0.496,-0.426 -1.137,-0.641 -1.911,-0.641 -0.73,0 -1.343,0.207 -1.835,0.617 -0.493,0.407 -0.739,0.989 -0.739,1.739 0,0.789 0.25,1.39 0.75,1.804 0.508,0.41 1.156,0.617 1.946,0.617 0.722,0 1.328,-0.199 1.812,-0.597 0.492,-0.406 0.738,-0.977 0.738,-1.715 z" /><path
                 id="path80"
                 style="fill:#000000;fill-opacity:1;fill-rule:nonzero;stroke:none"
                 d="m 76.348,221.965 c 0,0.305 -0.012,0.726 -0.043,1.262 l -7.461,0.128 c 0.074,1.059 0.484,1.946 1.23,2.661 0.746,0.711 1.731,1.066 2.965,1.066 1.098,0 2.129,-0.137 3.094,-0.402 l -0.184,1.531 c -0.711,0.281 -1.734,0.422 -3.074,0.422 -1.883,0 -3.32,-0.512 -4.313,-1.539 -0.984,-1.032 -1.476,-2.282 -1.476,-3.758 0,-1.578 0.449,-2.938 1.348,-4.074 0.906,-1.145 2.117,-1.715 3.636,-1.715 1.399,0 2.457,0.414 3.184,1.238 0.73,0.824 1.094,1.887 1.094,3.18 z m -1.813,0.023 c 0,-2.035 -0.851,-3.05 -2.551,-3.05 -1.738,0 -2.761,1.054 -3.074,3.171 z" /><path
                 id="path82"
                 style="fill:#000000;fill-opacity:1;fill-rule:nonzero;stroke:none"
                 d="m 88.027,228.34 h -1.976 c 0.16,-1.902 0.242,-3.981 0.242,-6.231 0,-1.117 -0.231,-1.875 -0.688,-2.281 -0.445,-0.414 -1.089,-0.621 -1.929,-0.621 -1.031,0 -1.977,0.375 -2.848,1.121 0,2.469 0.016,5.137 0.043,8.012 h -1.976 c 0.125,-2.461 0.187,-4.242 0.187,-5.344 0,-1.691 -0.16,-3.336 -0.48,-4.93 l 1.914,-0.269 0.203,1.324 h 0.09 c 1.07,-0.969 2.218,-1.453 3.441,-1.453 1.203,0 2.133,0.266 2.789,0.801 0.66,0.531 0.988,1.472 0.988,2.836 0,0.136 -0.007,0.41 -0.019,0.812 -0.016,0.406 -0.024,0.68 -0.024,0.817 0,1.207 0.016,3.011 0.043,5.406 z" /><path
                 id="path84"
                 style="fill:#000000;fill-opacity:1;fill-rule:nonzero;stroke:none"
                 d="m 97.012,226.844 -0.129,1.41 c -0.571,0.211 -1.11,0.316 -1.617,0.316 -1.305,0 -2.196,-0.332 -2.672,-0.988 -0.477,-0.668 -0.715,-1.855 -0.715,-3.562 0,-1.11 0.004,-2.551 0.019,-4.332 -0.406,0 -1.003,0.019 -1.793,0.062 l 0.067,-1.574 c 0.687,0.043 1.305,0.066 1.848,0.066 0,-0.433 0.035,-1.465 0.105,-3.094 l 1.707,-0.175 c -0.125,1.519 -0.184,2.609 -0.184,3.269 0.707,0 1.75,-0.035 3.125,-0.109 l -0.074,1.617 c -1.304,-0.043 -2.351,-0.062 -3.14,-0.062 -0.012,1.089 -0.02,2.324 -0.02,3.691 0,1.492 0.156,2.48 0.465,2.965 0.32,0.476 0.906,0.715 1.762,0.715 0.281,0 0.699,-0.071 1.246,-0.215 z" /></g></g></g></g><g
         id="g86"><g
           id="g88"><g
             clip-path="url(#clipPath94)"
             id="g90"><g
               id="g96"><path
                 id="path98"
                 style="fill:#000000;fill-opacity:1;fill-rule:nonzero;stroke:none"
                 d="m 306.977,109.887 -0.063,1.64 h -8.742 c 0.101,-2.242 0.152,-4.715 0.152,-7.418 0,-2.547 -0.051,-4.781 -0.152,-6.703 h 8.199 l -0.086,1.614 c -1.988,-0.086 -4.097,-0.129 -6.324,-0.129 0.043,1.121 0.062,2.636 0.062,4.543 1.926,0 3.641,-0.043 5.145,-0.129 v 1.617 c -1.606,-0.067 -3.32,-0.098 -5.145,-0.098 0,1.86 0.036,3.602 0.098,5.227 2.402,0 4.688,-0.055 6.856,-0.164 z" /><path
                 id="path100"
                 style="fill:#000000;fill-opacity:1;fill-rule:nonzero;stroke:none"
                 d="m 318.457,111.527 h -1.977 c 0.161,-1.902 0.239,-3.976 0.239,-6.226 0,-1.113 -0.227,-1.871 -0.684,-2.278 -0.445,-0.414 -1.09,-0.617 -1.93,-0.617 -1.027,0 -1.972,0.371 -2.839,1.117 0,2.465 0.011,5.133 0.043,8.004 h -1.973 c 0.121,-2.461 0.184,-4.238 0.184,-5.336 0,-1.691 -0.161,-3.336 -0.477,-4.925 l 1.906,-0.27 0.207,1.32 h 0.086 c 1.07,-0.968 2.219,-1.453 3.438,-1.453 1.203,0 2.132,0.27 2.789,0.805 0.656,0.527 0.988,1.473 0.988,2.832 0,0.137 -0.008,0.406 -0.023,0.812 -0.016,0.403 -0.02,0.676 -0.02,0.813 0,1.207 0.012,3.008 0.043,5.402 z" /><path
                 id="path102"
                 style="fill:#000000;fill-opacity:1;fill-rule:nonzero;stroke:none"
                 d="m 327.43,110.031 -0.129,1.407 c -0.574,0.21 -1.11,0.316 -1.617,0.316 -1.301,0 -2.192,-0.328 -2.668,-0.988 -0.477,-0.664 -0.715,-1.852 -0.715,-3.555 0,-1.109 0.008,-2.551 0.019,-4.328 -0.402,0 -1,0.019 -1.789,0.062 l 0.067,-1.57 c 0.687,0.043 1.3,0.066 1.843,0.066 0,-0.437 0.036,-1.464 0.11,-3.093 l 1.699,-0.172 c -0.121,1.515 -0.184,2.605 -0.184,3.265 0.711,0 1.75,-0.039 3.125,-0.109 l -0.078,1.613 c -1.301,-0.043 -2.343,-0.062 -3.133,-0.062 -0.015,1.09 -0.023,2.32 -0.023,3.687 0,1.489 0.156,2.477 0.469,2.961 0.316,0.477 0.902,0.715 1.758,0.715 0.281,0 0.695,-0.07 1.246,-0.215 z" /><path
                 id="path104"
                 style="fill:#000000;fill-opacity:1;fill-rule:nonzero;stroke:none"
                 d="m 331.555,111.527 h -1.961 c 0.101,-1.449 0.152,-3.097 0.152,-4.957 0,-2.09 -0.129,-3.843 -0.379,-5.261 l 2.168,-0.293 c -0.086,1.511 -0.129,3.363 -0.129,5.554 0,1.735 0.051,3.387 0.149,4.957 z m 0.457,-13.558 c 0,0.367 -0.117,0.691 -0.36,0.965 -0.238,0.269 -0.574,0.402 -1.007,0.402 -0.368,0 -0.657,-0.117 -0.868,-0.348 -0.203,-0.238 -0.304,-0.523 -0.304,-0.855 0,-0.363 0.125,-0.676 0.371,-0.945 0.246,-0.266 0.586,-0.403 1.019,-0.403 0.352,0 0.633,0.121 0.836,0.36 0.207,0.23 0.313,0.507 0.313,0.824 z" /><path
                 id="path106"
                 style="fill:#000000;fill-opacity:1;fill-rule:nonzero;stroke:none"
                 d="m 341.066,110.031 -0.128,1.407 c -0.571,0.21 -1.11,0.316 -1.618,0.316 -1.3,0 -2.187,-0.328 -2.668,-0.988 -0.476,-0.664 -0.714,-1.852 -0.714,-3.555 0,-1.109 0.007,-2.551 0.023,-4.328 -0.406,0 -1.004,0.019 -1.789,0.062 l 0.062,-1.57 c 0.688,0.043 1.301,0.066 1.844,0.066 0,-0.437 0.035,-1.464 0.11,-3.093 l 1.703,-0.172 c -0.125,1.515 -0.184,2.605 -0.184,3.265 0.707,0 1.75,-0.039 3.121,-0.109 l -0.074,1.613 c -1.301,-0.043 -2.348,-0.062 -3.137,-0.062 -0.012,1.09 -0.019,2.32 -0.019,3.687 0,1.489 0.156,2.477 0.464,2.961 0.321,0.477 0.907,0.715 1.758,0.715 0.282,0 0.7,-0.07 1.246,-0.215 z" /><path
                 id="path108"
                 style="fill:#000000;fill-opacity:1;fill-rule:nonzero;stroke:none"
                 d="m 351.691,101.223 c 0,0.461 -0.543,1.937 -1.636,4.425 -1.25,2.84 -2.028,4.844 -2.332,6.008 -0.5,1.887 -0.961,3.086 -1.387,3.602 -0.578,0.707 -1.609,1.062 -3.094,1.062 l -0.086,-1.519 c 0.906,0 1.656,-0.305 2.258,-0.922 0.598,-0.613 0.898,-1.383 0.898,-2.309 0,-0.804 -0.664,-2.711 -1.996,-5.726 -1.328,-3.016 -1.996,-4.555 -1.996,-4.621 h 2.246 c 0,0.195 0.457,1.511 1.368,3.949 0.91,2.433 1.367,3.937 1.367,4.5 h 0.109 c 0,-0.469 0.383,-1.832 1.149,-4.09 0.773,-2.254 1.16,-3.707 1.16,-4.359 z" /></g></g></g></g><g
         id="g110"><g
           id="g112"><g
             clip-path="url(#clipPath118)"
             id="g114"><g
               id="g120"><path
                 id="path122"
                 style="fill:#000000;fill-opacity:1;fill-rule:nonzero;stroke:none"
                 d="m 230.195,203.801 -1.523,0.058 c -0.02,-0.363 -0.008,-0.664 0.039,-0.894 h -0.098 c -1.008,0.726 -2.129,1.09 -3.367,1.09 -1.125,0 -1.887,-0.27 -2.289,-0.809 -0.406,-0.547 -0.441,-1.641 -0.109,-3.289 0.047,-0.234 0.121,-0.582 0.226,-1.043 0.11,-0.461 0.18,-0.777 0.215,-0.945 0.188,-0.957 0.356,-2.082 0.504,-3.375 l 1.824,-0.071 c -0.324,1.258 -0.578,2.329 -0.758,3.223 -0.41,2.047 -0.547,3.383 -0.41,4.008 0.141,0.617 0.676,0.926 1.598,0.926 1.043,0 1.953,-0.258 2.73,-0.782 0.723,-3.613 1.18,-6.05 1.368,-7.304 l 1.765,-0.071 c -0.293,1.223 -0.656,2.915 -1.094,5.075 -0.273,1.386 -0.48,2.785 -0.621,4.203 z" /><path
                 id="path124"
                 style="fill:#000000;fill-opacity:1;fill-rule:nonzero;stroke:none"
                 d="m 239.059,201.168 c -0.375,1.898 -1.778,2.848 -4.204,2.848 -1.074,0 -2.054,-0.106 -2.945,-0.321 l 0.594,-1.433 c 0.781,0.324 1.664,0.488 2.652,0.488 1.418,0 2.211,-0.406 2.371,-1.211 0.078,-0.391 -0.019,-0.699 -0.293,-0.926 -0.265,-0.234 -0.734,-0.496 -1.402,-0.781 -0.852,-0.363 -1.453,-0.715 -1.805,-1.055 -0.507,-0.5 -0.695,-1.105 -0.558,-1.812 0.152,-0.742 0.558,-1.375 1.222,-1.903 0.668,-0.535 1.575,-0.8 2.719,-0.8 1.121,0 1.996,0.093 2.637,0.281 l -0.586,1.406 c -0.645,-0.281 -1.43,-0.418 -2.352,-0.418 -1.25,0 -1.945,0.36 -2.089,1.082 -0.075,0.364 0,0.66 0.234,0.887 0.242,0.223 0.738,0.492 1.484,0.809 0.805,0.347 1.387,0.683 1.746,1.015 0.528,0.516 0.719,1.129 0.575,1.844 z" /><path
                 id="path126"
                 style="fill:#000000;fill-opacity:1;fill-rule:nonzero;stroke:none"
                 d="m 249.309,198.086 c -0.051,0.273 -0.137,0.648 -0.262,1.133 l -6.723,0.117 c -0.121,0.949 0.086,1.746 0.625,2.387 0.539,0.64 1.363,0.957 2.469,0.957 0.988,0 1.941,-0.121 2.859,-0.36 l -0.449,1.375 c -0.683,0.254 -1.625,0.379 -2.828,0.379 -1.691,0 -2.891,-0.461 -3.602,-1.383 -0.703,-0.925 -0.918,-2.05 -0.652,-3.375 0.285,-1.418 0.938,-2.64 1.949,-3.66 1.016,-1.027 2.207,-1.539 3.571,-1.539 1.257,0 2.132,0.367 2.636,1.11 0.504,0.742 0.641,1.695 0.407,2.859 z m -1.629,0.019 c 0.367,-1.828 -0.215,-2.742 -1.746,-2.742 -1.559,0 -2.668,0.949 -3.325,2.848 z" /><path
                 id="path128"
                 style="fill:#000000;fill-opacity:1;fill-rule:nonzero;stroke:none"
                 d="m 258.09,203.801 -1.465,0.051 c 0.008,-0.282 0.039,-0.579 0.098,-0.887 h -0.106 c -0.828,0.738 -1.914,1.109 -3.262,1.109 -1.234,0 -2.128,-0.449 -2.679,-1.344 -0.555,-0.898 -0.703,-1.98 -0.449,-3.25 0.285,-1.437 0.937,-2.675 1.961,-3.714 1.019,-1.043 2.269,-1.563 3.746,-1.563 1.05,0 1.765,0.215 2.136,0.645 h 0.078 c 0.317,-1.614 0.586,-3.196 0.809,-4.75 l 1.871,-0.071 c -0.453,1.653 -0.949,3.817 -1.48,6.489 -0.547,2.718 -0.965,5.148 -1.258,7.285 z m -1.184,-1.922 c 0.406,-2.02 0.739,-3.969 0.996,-5.844 -0.433,-0.433 -1.047,-0.652 -1.832,-0.652 -1.101,0 -1.996,0.367 -2.695,1.101 -0.687,0.731 -1.145,1.649 -1.363,2.754 -0.203,0.989 -0.11,1.821 0.273,2.496 0.383,0.676 1.031,1.016 1.949,1.016 1.153,0 2.043,-0.289 2.672,-0.871 z" /></g></g></g></g><g
         id="g130"><g
           id="g132"><g
             clip-path="url(#clipPath138)"
             id="g134"><g
               id="g140"><path
                 id="path142"
                 style="fill:#000000;fill-opacity:1;fill-rule:nonzero;stroke:none"
                 d="m 406.977,197.738 c -0.079,0.391 -0.946,1.922 -2.598,4.594 -1.645,2.664 -2.512,4.223 -2.602,4.672 h -1.328 c 0.051,-0.246 -0.086,-1.195 -0.418,-2.84 -0.406,-2.019 -0.66,-3.602 -0.773,-4.738 h -0.078 c -0.524,1.097 -1.375,2.679 -2.543,4.75 -0.926,1.636 -1.414,2.582 -1.465,2.828 h -1.336 c 0.078,-0.379 -0.137,-1.938 -0.645,-4.684 -0.5,-2.75 -0.722,-4.277 -0.664,-4.582 h 1.739 c -0.067,0.336 0.062,1.574 0.39,3.707 0.332,2.133 0.465,3.375 0.399,3.727 h 0.109 c 0.102,-0.535 0.75,-1.82 1.941,-3.856 1.188,-2.043 1.821,-3.234 1.891,-3.578 h 1.66 c -0.058,0.297 0.094,1.543 0.465,3.735 0.379,2.191 0.543,3.425 0.488,3.699 h 0.098 c 0.078,-0.399 0.672,-1.61 1.777,-3.629 1.11,-2.031 1.719,-3.301 1.825,-3.805 z" /><path
                 id="path144"
                 style="fill:#000000;fill-opacity:1;fill-rule:nonzero;stroke:none"
                 d="m 413.645,207.004 -1.543,0.058 c -0.012,-0.32 0.007,-0.621 0.058,-0.906 h -0.098 c -0.941,0.727 -2.101,1.09 -3.48,1.09 -0.75,0 -1.352,-0.215 -1.805,-0.652 -0.449,-0.442 -0.593,-1.071 -0.429,-1.883 0.199,-1 0.781,-1.805 1.746,-2.41 0.968,-0.61 2.601,-0.934 4.906,-0.965 0.051,-0.156 0.098,-0.336 0.137,-0.535 0.16,-0.801 0.054,-1.336 -0.325,-1.602 -0.371,-0.265 -0.988,-0.398 -1.851,-0.398 -1.02,0 -2.051,0.125 -3.094,0.379 l 0.442,-1.344 c 1.031,-0.281 2.183,-0.422 3.453,-0.422 1.156,0 2,0.242 2.535,0.723 0.531,0.476 0.687,1.289 0.457,2.437 -0.063,0.309 -0.192,0.864 -0.379,1.668 -0.187,0.801 -0.309,1.336 -0.359,1.602 -0.243,1.183 -0.368,2.238 -0.371,3.16 z m -1.348,-1.891 c 0.164,-0.992 0.32,-1.879 0.476,-2.664 -1.222,0 -2.168,0.09 -2.835,0.274 -1.133,0.324 -1.79,0.945 -1.973,1.863 -0.18,0.883 0.351,1.324 1.601,1.324 1.071,0 1.985,-0.265 2.731,-0.797 z" /><path
                 id="path146"
                 style="fill:#000000;fill-opacity:1;fill-rule:nonzero;stroke:none"
                 d="m 422.609,204.359 c -0.379,1.899 -1.781,2.848 -4.207,2.848 -1.07,0 -2.054,-0.105 -2.945,-0.32 l 0.594,-1.434 c 0.781,0.324 1.668,0.488 2.656,0.488 1.418,0 2.207,-0.402 2.367,-1.211 0.078,-0.39 -0.019,-0.699 -0.289,-0.925 -0.269,-0.235 -0.738,-0.496 -1.406,-0.782 -0.852,-0.363 -1.453,-0.714 -1.805,-1.054 -0.508,-0.5 -0.691,-1.106 -0.554,-1.813 0.148,-0.742 0.554,-1.375 1.218,-1.902 0.668,-0.535 1.578,-0.801 2.723,-0.801 1.117,0 1.996,0.094 2.633,0.285 l -0.586,1.403 c -0.645,-0.278 -1.426,-0.418 -2.352,-0.418 -1.25,0 -1.945,0.359 -2.086,1.082 -0.078,0.363 0,0.66 0.235,0.886 0.238,0.223 0.734,0.493 1.48,0.813 0.809,0.344 1.391,0.68 1.746,1.012 0.528,0.515 0.719,1.129 0.578,1.843 z" /><path
                 id="path148"
                 style="fill:#000000;fill-opacity:1;fill-rule:nonzero;stroke:none"
                 d="m 433.578,206.742 c -1.129,0.348 -2.238,0.524 -3.324,0.524 -2.281,0 -3.883,-0.606 -4.801,-1.825 -0.914,-1.222 -1.195,-2.73 -0.836,-4.523 0.363,-1.816 1.309,-3.398 2.836,-4.75 1.535,-1.359 3.422,-2.039 5.66,-2.039 0.805,0 1.551,0.094 2.231,0.281 l -0.563,1.621 c -1.023,-0.261 -1.863,-0.39 -2.519,-0.39 -1.574,0 -2.871,0.476 -3.903,1.433 -1.027,0.949 -1.679,2.129 -1.957,3.539 -0.289,1.418 -0.058,2.66 0.692,3.727 0.746,1.066 1.996,1.601 3.746,1.601 0.316,0 0.805,-0.05 1.461,-0.148 0.027,-0.676 0.129,-1.461 0.304,-2.359 0.149,-0.754 0.254,-1.493 0.313,-2.215 h 1.773 c -0.226,0.859 -0.433,1.765 -0.625,2.722 -0.082,0.411 -0.246,1.344 -0.488,2.801 z" /><path
                 id="path150"
                 style="fill:#000000;fill-opacity:1;fill-rule:nonzero;stroke:none"
                 d="m 444.207,201.277 c -0.055,0.274 -0.141,0.653 -0.266,1.133 l -6.718,0.117 c -0.125,0.95 0.082,1.746 0.621,2.391 0.543,0.637 1.363,0.953 2.468,0.953 0.989,0 1.942,-0.117 2.86,-0.359 l -0.449,1.375 c -0.684,0.254 -1.625,0.379 -2.828,0.379 -1.692,0 -2.891,-0.461 -3.602,-1.383 -0.699,-0.926 -0.918,-2.051 -0.652,-3.375 0.285,-1.418 0.937,-2.637 1.949,-3.66 1.015,-1.028 2.207,-1.539 3.57,-1.539 1.258,0 2.137,0.371 2.637,1.109 0.508,0.742 0.644,1.695 0.41,2.859 z m -1.629,0.02 c 0.363,-1.828 -0.219,-2.742 -1.746,-2.742 -1.562,0 -2.672,0.949 -3.328,2.851 z" /><path
                 id="path152"
                 style="fill:#000000;fill-opacity:1;fill-rule:nonzero;stroke:none"
                 d="m 452.738,207.004 h -1.777 c 0.488,-1.711 0.934,-3.578 1.336,-5.598 0.203,-1.004 0.133,-1.687 -0.203,-2.051 -0.332,-0.371 -0.875,-0.554 -1.629,-0.554 -0.926,0 -1.84,0.336 -2.75,1.004 -0.449,2.218 -0.918,4.617 -1.406,7.199 h -1.774 c 0.551,-2.211 0.926,-3.813 1.121,-4.801 0.305,-1.519 0.457,-2.996 0.457,-4.426 l 1.766,-0.246 -0.047,1.192 h 0.078 c 1.137,-0.871 2.254,-1.309 3.356,-1.309 1.078,0 1.863,0.242 2.359,0.723 0.492,0.476 0.621,1.324 0.379,2.547 -0.024,0.121 -0.082,0.367 -0.176,0.73 -0.082,0.363 -0.137,0.609 -0.156,0.731 -0.219,1.085 -0.531,2.707 -0.934,4.859 z" /><path
                 id="path154"
                 style="fill:#000000;fill-opacity:1;fill-rule:nonzero;stroke:none"
                 d="m 463.984,201.277 c -0.054,0.274 -0.14,0.653 -0.265,1.133 L 457,202.527 c -0.125,0.95 0.082,1.746 0.625,2.391 0.539,0.637 1.359,0.953 2.465,0.953 0.988,0 1.941,-0.117 2.859,-0.359 l -0.449,1.375 c -0.684,0.254 -1.625,0.379 -2.828,0.379 -1.692,0 -2.891,-0.461 -3.598,-1.383 -0.703,-0.926 -0.922,-2.051 -0.656,-3.375 0.285,-1.418 0.937,-2.637 1.953,-3.66 1.012,-1.028 2.203,-1.539 3.57,-1.539 1.254,0 2.133,0.371 2.633,1.109 0.508,0.742 0.645,1.695 0.41,2.859 z m -1.629,0.02 c 0.364,-1.828 -0.218,-2.742 -1.746,-2.742 -1.562,0 -2.671,0.949 -3.328,2.851 z" /><path
                 id="path156"
                 style="fill:#000000;fill-opacity:1;fill-rule:nonzero;stroke:none"
                 d="m 472.039,197.738 -0.754,1.551 c -0.465,-0.203 -0.918,-0.305 -1.355,-0.305 -1.223,0 -2.129,0.582 -2.719,1.746 -0.602,2.993 -1,5.082 -1.203,6.274 h -1.727 c 0.516,-2.063 0.887,-3.66 1.114,-4.801 0.312,-1.539 0.457,-3.015 0.429,-4.426 l 1.758,-0.246 c -0.02,0.715 -0.055,1.196 -0.098,1.434 h 0.078 c 0.911,-1.031 1.833,-1.551 2.77,-1.551 0.492,0 1.063,0.109 1.707,0.324 z" /><path
                 id="path158"
                 style="fill:#000000;fill-opacity:1;fill-rule:nonzero;stroke:none"
                 d="m 478.891,207.004 -1.543,0.058 c -0.012,-0.32 0.007,-0.621 0.058,-0.906 h -0.097 c -0.942,0.727 -2.102,1.09 -3.481,1.09 -0.75,0 -1.351,-0.215 -1.805,-0.652 -0.449,-0.442 -0.593,-1.071 -0.429,-1.883 0.203,-1 0.785,-1.805 1.746,-2.41 0.969,-0.61 2.605,-0.934 4.906,-0.965 0.055,-0.156 0.098,-0.336 0.137,-0.535 0.164,-0.801 0.055,-1.336 -0.321,-1.602 -0.371,-0.265 -0.988,-0.398 -1.855,-0.398 -1.019,0 -2.051,0.125 -3.09,0.379 l 0.438,-1.344 c 1.035,-0.281 2.183,-0.422 3.453,-0.422 1.156,0 2.004,0.242 2.535,0.723 0.535,0.476 0.687,1.289 0.461,2.437 -0.066,0.309 -0.192,0.864 -0.383,1.668 -0.187,0.801 -0.309,1.336 -0.359,1.602 -0.242,1.183 -0.364,2.238 -0.371,3.16 z m -1.348,-1.891 c 0.164,-0.992 0.324,-1.879 0.48,-2.664 -1.222,0 -2.168,0.09 -2.839,0.274 -1.133,0.324 -1.789,0.945 -1.969,1.863 -0.184,0.883 0.351,1.324 1.597,1.324 1.075,0 1.985,-0.265 2.731,-0.797 z" /><path
                 id="path160"
                 style="fill:#000000;fill-opacity:1;fill-rule:nonzero;stroke:none"
                 d="m 486.754,205.656 -0.371,1.27 c -0.555,0.187 -1.059,0.281 -1.512,0.281 -1.172,0 -1.914,-0.293 -2.226,-0.887 -0.309,-0.597 -0.309,-1.664 0,-3.199 0.195,-0.996 0.46,-2.293 0.793,-3.891 -0.368,0 -0.907,0.02 -1.622,0.059 l 0.344,-1.414 c 0.61,0.039 1.16,0.059 1.649,0.059 0.078,-0.391 0.293,-1.321 0.652,-2.782 l 1.559,-0.156 c -0.383,1.367 -0.633,2.344 -0.75,2.938 0.636,0 1.582,-0.036 2.828,-0.098 l -0.36,1.453 c -1.164,-0.039 -2.101,-0.059 -2.808,-0.059 -0.211,0.981 -0.438,2.086 -0.684,3.317 -0.266,1.34 -0.301,2.226 -0.109,2.664 0.203,0.426 0.687,0.641 1.457,0.641 0.254,0 0.64,-0.063 1.16,-0.196 z" /><path
                 id="path162"
                 style="fill:#000000;fill-opacity:1;fill-rule:nonzero;stroke:none"
                 d="m 497.746,201.277 c -0.051,0.274 -0.141,0.653 -0.262,1.133 l -6.722,0.117 c -0.125,0.95 0.086,1.746 0.625,2.391 0.539,0.637 1.363,0.953 2.468,0.953 0.989,0 1.942,-0.117 2.856,-0.359 l -0.449,1.375 c -0.68,0.254 -1.625,0.379 -2.828,0.379 -1.692,0 -2.891,-0.461 -3.598,-1.383 -0.703,-0.926 -0.922,-2.051 -0.656,-3.375 0.289,-1.418 0.937,-2.637 1.953,-3.66 1.015,-1.028 2.203,-1.539 3.57,-1.539 1.254,0 2.133,0.371 2.633,1.109 0.508,0.742 0.644,1.695 0.41,2.859 z m -1.629,0.02 c 0.363,-1.828 -0.219,-2.742 -1.746,-2.742 -1.562,0 -2.668,0.949 -3.328,2.851 z" /><path
                 id="path164"
                 style="fill:#000000;fill-opacity:1;fill-rule:nonzero;stroke:none"
                 d="M 506.465,206.992 505,207.043 c 0.008,-0.281 0.039,-0.574 0.098,-0.887 h -0.106 c -0.828,0.742 -1.914,1.11 -3.258,1.11 -1.238,0 -2.132,-0.446 -2.683,-1.344 -0.555,-0.899 -0.703,-1.981 -0.449,-3.25 0.285,-1.438 0.941,-2.676 1.96,-3.715 1.02,-1.043 2.27,-1.562 3.747,-1.562 1.054,0 1.765,0.214 2.136,0.644 h 0.078 c 0.317,-1.613 0.586,-3.195 0.809,-4.75 l 1.875,-0.07 c -0.457,1.652 -0.953,3.816 -1.484,6.488 -0.547,2.719 -0.965,5.148 -1.258,7.285 z m -1.18,-1.918 c 0.403,-2.023 0.735,-3.972 0.992,-5.844 -0.433,-0.437 -1.047,-0.656 -1.832,-0.656 -1.097,0 -1.996,0.367 -2.691,1.106 -0.692,0.726 -1.145,1.644 -1.367,2.75 -0.203,0.988 -0.11,1.82 0.273,2.496 0.383,0.676 1.035,1.015 1.949,1.015 1.153,0 2.043,-0.289 2.676,-0.867 z" /><path
                 id="path166"
                 style="fill:#000000;fill-opacity:1;fill-rule:nonzero;stroke:none"
                 d="m 519.027,203.133 c -0.246,1.262 -0.98,2.234 -2.195,2.926 -1.176,0.668 -2.68,1.003 -4.508,1.003 -0.508,0 -1.5,-0.019 -2.972,-0.058 0.492,-2.016 0.984,-4.238 1.472,-6.672 0.453,-2.289 0.809,-4.301 1.063,-6.027 h 1.168 c 0.23,0 0.691,-0.012 1.386,-0.032 0.696,-0.019 1.2,-0.027 1.512,-0.027 2.707,0 3.871,0.934 3.492,2.797 -0.293,1.457 -1.125,2.426 -2.496,2.906 l -0.019,0.098 c 1.75,0.328 2.449,1.355 2.097,3.086 z m -1.679,0.164 c 0.32,-1.598 -0.938,-2.399 -3.774,-2.399 -0.519,0 -0.984,0.02 -1.386,0.059 -0.344,1.734 -0.618,3.285 -0.821,4.652 0.235,0.059 0.664,0.086 1.289,0.086 1.567,0 2.719,-0.203 3.453,-0.613 0.664,-0.371 1.079,-0.965 1.239,-1.785 z m 0.363,-5.766 c 0.273,-1.343 -0.5,-2.019 -2.313,-2.019 -0.91,0 -1.66,0.05 -2.246,0.148 -0.043,0.469 -0.285,1.789 -0.718,3.969 0.316,0.012 0.668,0.019 1.05,0.019 1.289,0 2.254,-0.144 2.899,-0.437 0.726,-0.328 1.172,-0.887 1.328,-1.68 z" /><path
                 id="path168"
                 style="fill:#000000;fill-opacity:1;fill-rule:nonzero;stroke:none"
                 d="m 529.133,197.738 c -0.082,0.414 -0.84,1.742 -2.27,3.977 -1.633,2.558 -2.691,4.359 -3.172,5.406 -0.793,1.695 -1.425,2.777 -1.902,3.238 -0.644,0.637 -1.633,0.957 -2.965,0.957 l 0.196,-1.367 c 0.812,0 1.542,-0.277 2.195,-0.828 0.648,-0.555 1.055,-1.246 1.219,-2.078 0.14,-0.723 -0.114,-2.438 -0.77,-5.152 -0.652,-2.711 -0.973,-4.094 -0.957,-4.153 h 2.02 c -0.036,0.176 0.14,1.36 0.515,3.551 0.383,2.191 0.524,3.539 0.418,4.047 h 0.098 c 0.086,-0.422 0.68,-1.648 1.777,-3.676 1.098,-2.031 1.707,-3.34 1.824,-3.922 z" /></g></g></g></g><g
         id="g170"><g
           id="g172"><g
             clip-path="url(#clipPath178)"
             id="g174"><g
               id="g180"><path
                 id="path182"
                 style="fill:#000000;fill-opacity:1;fill-rule:nonzero;stroke:none"
                 d="m 78.27,314.953 c -0.079,0.387 -0.946,1.918 -2.594,4.586 -1.641,2.664 -2.508,4.219 -2.602,4.668 H 71.75 c 0.051,-0.246 -0.086,-1.191 -0.418,-2.836 -0.402,-2.019 -0.66,-3.598 -0.77,-4.734 h -0.078 c -0.527,1.097 -1.375,2.679 -2.543,4.746 -0.921,1.637 -1.41,2.578 -1.461,2.824 h -1.335 c 0.078,-0.379 -0.137,-1.937 -0.641,-4.676 -0.5,-2.75 -0.723,-4.273 -0.664,-4.578 h 1.734 c -0.066,0.336 0.067,1.57 0.391,3.699 0.332,2.133 0.465,3.371 0.398,3.723 h 0.106 c 0.105,-0.531 0.75,-1.816 1.941,-3.848 1.188,-2.039 1.817,-3.23 1.891,-3.574 h 1.656 c -0.059,0.297 0.094,1.539 0.465,3.731 0.379,2.187 0.539,3.418 0.488,3.691 h 0.098 c 0.078,-0.395 0.668,-1.605 1.773,-3.625 1.11,-2.027 1.719,-3.293 1.821,-3.797 z" /><path
                 id="path184"
                 style="fill:#000000;fill-opacity:1;fill-rule:nonzero;stroke:none"
                 d="m 84.926,324.207 -1.539,0.059 c -0.012,-0.321 0.008,-0.621 0.058,-0.907 h -0.097 c -0.942,0.727 -2.102,1.09 -3.477,1.09 -0.746,0 -1.348,-0.219 -1.805,-0.652 -0.445,-0.442 -0.589,-1.067 -0.425,-1.879 0.199,-1 0.781,-1.805 1.742,-2.406 0.969,-0.614 2.601,-0.934 4.902,-0.965 0.051,-0.156 0.098,-0.336 0.137,-0.535 0.16,-0.801 0.055,-1.332 -0.324,-1.598 -0.371,-0.266 -0.989,-0.402 -1.852,-0.402 -1.019,0 -2.047,0.129 -3.086,0.383 l 0.438,-1.344 c 1.031,-0.281 2.183,-0.422 3.449,-0.422 1.156,0 2,0.242 2.531,0.723 0.535,0.472 0.688,1.285 0.461,2.433 -0.066,0.305 -0.195,0.863 -0.383,1.668 -0.187,0.797 -0.308,1.332 -0.359,1.598 -0.242,1.179 -0.363,2.234 -0.371,3.156 z m -1.344,-1.891 c 0.164,-0.988 0.32,-1.875 0.477,-2.66 -1.219,0 -2.164,0.09 -2.832,0.274 -1.133,0.324 -1.789,0.945 -1.969,1.859 -0.184,0.883 0.351,1.324 1.597,1.324 1.071,0 1.981,-0.265 2.727,-0.797 z" /><path
                 id="path186"
                 style="fill:#000000;fill-opacity:1;fill-rule:nonzero;stroke:none"
                 d="m 93.879,321.566 c -0.375,1.895 -1.777,2.844 -4.199,2.844 -1.071,0 -2.051,-0.105 -2.942,-0.32 l 0.594,-1.434 c 0.781,0.324 1.664,0.489 2.652,0.489 1.414,0 2.204,-0.403 2.368,-1.207 0.074,-0.391 -0.02,-0.7 -0.293,-0.926 -0.266,-0.235 -0.735,-0.496 -1.403,-0.782 -0.851,-0.363 -1.453,-0.714 -1.804,-1.05 -0.504,-0.5 -0.692,-1.106 -0.555,-1.813 0.148,-0.738 0.555,-1.375 1.219,-1.898 0.668,-0.535 1.574,-0.801 2.718,-0.801 1.118,0 1.993,0.094 2.629,0.285 l -0.586,1.402 c -0.64,-0.281 -1.425,-0.421 -2.347,-0.421 -1.246,0 -1.942,0.363 -2.082,1.082 -0.078,0.363 0,0.66 0.23,0.886 0.242,0.223 0.734,0.493 1.484,0.809 0.805,0.344 1.383,0.684 1.743,1.016 0.527,0.511 0.718,1.125 0.574,1.839 z" /><path
                 id="path188"
                 style="fill:#000000;fill-opacity:1;fill-rule:nonzero;stroke:none"
                 d="m 105.891,324.207 h -2.059 c 0.086,-0.437 -0.051,-1.805 -0.406,-4.102 h -5.621 c -1.262,2.266 -1.938,3.633 -2.028,4.102 h -1.968 c 0.046,-0.242 1.296,-2.316 3.75,-6.227 2.461,-3.914 3.73,-6.07 3.808,-6.457 h 2.262 c -0.07,0.383 0.305,2.504 1.129,6.36 0.824,3.859 1.203,5.965 1.133,6.324 z m -2.661,-5.379 c -0.761,-3.812 -1.117,-5.84 -1.074,-6.078 h -0.105 c -0.039,0.203 -1.235,2.227 -3.586,6.078 z" /><path
                 id="path190"
                 style="fill:#000000;fill-opacity:1;fill-rule:nonzero;stroke:none"
                 d="m 113.711,321.566 c -0.375,1.895 -1.777,2.844 -4.199,2.844 -1.071,0 -2.051,-0.105 -2.942,-0.32 l 0.594,-1.434 c 0.781,0.324 1.664,0.489 2.648,0.489 1.418,0 2.208,-0.403 2.368,-1.207 0.078,-0.391 -0.02,-0.7 -0.289,-0.926 -0.27,-0.235 -0.735,-0.496 -1.407,-0.782 -0.847,-0.363 -1.449,-0.714 -1.8,-1.05 -0.508,-0.5 -0.692,-1.106 -0.555,-1.813 0.148,-0.738 0.555,-1.375 1.219,-1.898 0.668,-0.535 1.574,-0.801 2.714,-0.801 1.118,0 1.997,0.094 2.633,0.285 l -0.586,1.402 c -0.64,-0.281 -1.425,-0.421 -2.347,-0.421 -1.246,0 -1.942,0.363 -2.086,1.082 -0.074,0.363 0,0.66 0.234,0.886 0.242,0.223 0.735,0.493 1.481,0.809 0.808,0.344 1.386,0.684 1.746,1.016 0.523,0.511 0.718,1.125 0.574,1.839 z" /><path
                 id="path192"
                 style="fill:#000000;fill-opacity:1;fill-rule:nonzero;stroke:none"
                 d="m 121.531,321.566 c -0.375,1.895 -1.777,2.844 -4.199,2.844 -1.07,0 -2.051,-0.105 -2.941,-0.32 l 0.593,-1.434 c 0.782,0.324 1.664,0.489 2.653,0.489 1.414,0 2.203,-0.403 2.367,-1.207 0.074,-0.391 -0.02,-0.7 -0.293,-0.926 -0.266,-0.235 -0.734,-0.496 -1.402,-0.782 -0.852,-0.363 -1.454,-0.714 -1.805,-1.05 -0.504,-0.5 -0.692,-1.106 -0.555,-1.813 0.149,-0.738 0.555,-1.375 1.219,-1.898 0.668,-0.535 1.574,-0.801 2.719,-0.801 1.117,0 1.992,0.094 2.629,0.285 l -0.586,1.402 c -0.641,-0.281 -1.426,-0.421 -2.348,-0.421 -1.246,0 -1.941,0.363 -2.082,1.082 -0.078,0.363 0,0.66 0.23,0.886 0.243,0.223 0.735,0.493 1.485,0.809 0.805,0.344 1.387,0.684 1.742,1.016 0.527,0.511 0.719,1.125 0.574,1.839 z" /><path
                 id="path194"
                 style="fill:#000000;fill-opacity:1;fill-rule:nonzero;stroke:none"
                 d="m 132.559,319.297 c -0.332,1.66 -1.071,2.961 -2.211,3.894 -1.145,0.93 -2.364,1.395 -3.653,1.395 -1.211,0 -2.164,-0.414 -2.867,-1.238 -0.699,-0.825 -0.902,-1.985 -0.601,-3.485 0.335,-1.675 1.078,-2.984 2.218,-3.929 1.153,-0.942 2.371,-1.411 3.664,-1.411 1.207,0 2.161,0.418 2.856,1.258 0.695,0.828 0.89,2 0.594,3.516 z m -1.754,0.34 c 0.203,-1.012 0.125,-1.91 -0.223,-2.699 -0.352,-0.79 -1,-1.188 -1.941,-1.188 -0.934,0 -1.731,0.375 -2.387,1.121 -0.649,0.746 -1.074,1.613 -1.274,2.602 -0.203,1.019 -0.128,1.922 0.223,2.707 0.352,0.785 1,1.179 1.949,1.179 0.934,0 1.727,-0.375 2.375,-1.121 0.657,-0.754 1.082,-1.621 1.278,-2.601 z" /><path
                 id="path196"
                 style="fill:#000000;fill-opacity:1;fill-rule:nonzero;stroke:none"
                 d="m 140.578,322.715 -0.359,1.305 c -0.586,0.3 -1.321,0.449 -2.203,0.449 -1.68,0 -2.875,-0.465 -3.582,-1.391 -0.704,-0.93 -0.926,-2.051 -0.664,-3.363 0.277,-1.391 0.988,-2.586 2.125,-3.586 1.136,-1 2.472,-1.5 4.011,-1.5 0.774,0 1.387,0.078 1.84,0.234 l -0.574,1.532 c -0.629,-0.254 -1.293,-0.383 -1.996,-0.383 -0.922,0 -1.723,0.324 -2.395,0.965 -0.672,0.644 -1.101,1.449 -1.297,2.418 -0.214,1.05 -0.07,1.929 0.438,2.628 0.512,0.704 1.363,1.055 2.555,1.055 0.484,0 1.187,-0.121 2.101,-0.363 z" /><path
                 id="path198"
                 style="fill:#000000;fill-opacity:1;fill-rule:nonzero;stroke:none"
                 d="m 143.379,324.207 h -1.766 c 0.352,-1.301 0.692,-2.785 1.024,-4.453 0.375,-1.875 0.578,-3.453 0.605,-4.723 l 2.004,-0.265 c -0.348,1.359 -0.723,3.019 -1.117,4.988 -0.313,1.558 -0.563,3.043 -0.75,4.453 z m 2.844,-12.18 c -0.067,0.332 -0.231,0.621 -0.496,0.868 -0.262,0.242 -0.586,0.363 -0.977,0.363 -0.332,0 -0.566,-0.106 -0.711,-0.313 -0.141,-0.215 -0.184,-0.472 -0.125,-0.769 0.063,-0.324 0.231,-0.61 0.496,-0.848 0.274,-0.242 0.606,-0.359 0.992,-0.359 0.321,0 0.551,0.105 0.692,0.32 0.144,0.207 0.187,0.453 0.129,0.738 z" /><path
                 id="path200"
                 style="fill:#000000;fill-opacity:1;fill-rule:nonzero;stroke:none"
                 d="m 153.461,324.207 -1.543,0.059 c -0.012,-0.321 0.008,-0.621 0.059,-0.907 h -0.098 c -0.941,0.727 -2.098,1.09 -3.477,1.09 -0.746,0 -1.347,-0.219 -1.8,-0.652 -0.45,-0.442 -0.59,-1.067 -0.43,-1.879 0.203,-1 0.781,-1.805 1.742,-2.406 0.969,-0.614 2.602,-0.934 4.902,-0.965 0.051,-0.156 0.098,-0.336 0.137,-0.535 0.16,-0.801 0.055,-1.332 -0.32,-1.598 -0.371,-0.266 -0.988,-0.402 -1.852,-0.402 -1.019,0 -2.051,0.129 -3.09,0.383 l 0.438,-1.344 c 1.035,-0.281 2.183,-0.422 3.449,-0.422 1.156,0 2,0.242 2.535,0.723 0.532,0.472 0.684,1.285 0.457,2.433 -0.066,0.305 -0.191,0.863 -0.379,1.668 -0.191,0.797 -0.308,1.332 -0.363,1.598 -0.238,1.179 -0.363,2.234 -0.367,3.156 z m -1.348,-1.891 c 0.164,-0.988 0.325,-1.875 0.481,-2.66 -1.223,0 -2.168,0.09 -2.836,0.274 -1.129,0.324 -1.785,0.945 -1.969,1.859 -0.18,0.883 0.352,1.324 1.598,1.324 1.07,0 1.98,-0.265 2.726,-0.797 z" /><path
                 id="path202"
                 style="fill:#000000;fill-opacity:1;fill-rule:nonzero;stroke:none"
                 d="m 161.312,322.863 -0.371,1.266 c -0.554,0.187 -1.054,0.281 -1.511,0.281 -1.168,0 -1.91,-0.293 -2.219,-0.887 -0.313,-0.597 -0.313,-1.66 0,-3.195 0.195,-0.992 0.457,-2.289 0.789,-3.887 -0.363,0 -0.902,0.02 -1.617,0.059 l 0.34,-1.41 c 0.609,0.035 1.16,0.055 1.644,0.055 0.078,-0.387 0.297,-1.313 0.656,-2.774 l 1.559,-0.156 c -0.387,1.363 -0.637,2.34 -0.754,2.93 0.637,0 1.582,-0.032 2.828,-0.094 l -0.363,1.449 c -1.16,-0.039 -2.098,-0.059 -2.805,-0.059 -0.207,0.981 -0.433,2.086 -0.679,3.313 -0.27,1.34 -0.305,2.226 -0.11,2.66 0.203,0.43 0.688,0.645 1.453,0.645 0.254,0 0.641,-0.067 1.16,-0.196 z" /><path
                 id="path204"
                 style="fill:#000000;fill-opacity:1;fill-rule:nonzero;stroke:none"
                 d="m 172.25,318.488 c -0.051,0.274 -0.141,0.649 -0.262,1.129 l -6.715,0.117 c -0.121,0.95 0.086,1.746 0.625,2.387 0.54,0.637 1.36,0.957 2.465,0.957 0.989,0 1.938,-0.121 2.856,-0.363 l -0.449,1.375 c -0.684,0.254 -1.625,0.379 -2.825,0.379 -1.691,0 -2.886,-0.461 -3.597,-1.383 -0.7,-0.922 -0.918,-2.047 -0.653,-3.371 0.285,-1.414 0.938,-2.633 1.95,-3.653 1.011,-1.027 2.203,-1.539 3.566,-1.539 1.254,0 2.129,0.372 2.629,1.11 0.508,0.742 0.644,1.691 0.41,2.855 z m -1.629,0.02 c 0.363,-1.824 -0.215,-2.738 -1.742,-2.738 -1.559,0 -2.668,0.949 -3.32,2.843 z" /><path
                 id="path206"
                 style="fill:#000000;fill-opacity:1;fill-rule:nonzero;stroke:none"
                 d="m 181.016,324.195 -1.461,0.051 c 0.007,-0.281 0.039,-0.574 0.097,-0.887 h -0.109 c -0.824,0.739 -1.906,1.11 -3.254,1.11 -1.23,0 -2.125,-0.449 -2.676,-1.344 -0.554,-0.895 -0.703,-1.977 -0.449,-3.242 0.285,-1.438 0.938,-2.676 1.957,-3.715 1.02,-1.039 2.266,-1.559 3.742,-1.559 1.051,0 1.762,0.215 2.133,0.645 h 0.078 c 0.317,-1.609 0.586,-3.192 0.809,-4.746 l 1.871,-0.067 c -0.457,1.649 -0.949,3.809 -1.481,6.477 -0.546,2.715 -0.964,5.141 -1.257,7.277 z m -1.18,-1.918 c 0.402,-2.019 0.734,-3.965 0.996,-5.836 -0.437,-0.433 -1.047,-0.652 -1.832,-0.652 -1.098,0 -1.996,0.367 -2.691,1.102 -0.688,0.726 -1.141,1.644 -1.364,2.746 -0.199,0.988 -0.109,1.82 0.274,2.496 0.383,0.676 1.031,1.012 1.949,1.012 1.148,0 2.039,-0.29 2.668,-0.868 z" /><path
                 id="path208"
                 style="fill:#000000;fill-opacity:1;fill-rule:nonzero;stroke:none"
                 d="m 202.172,311.523 c -0.09,0.473 -1.215,2.598 -3.379,6.372 -2.156,3.773 -3.277,5.875 -3.359,6.312 h -1.27 c 0.117,-0.574 -0.059,-2.227 -0.535,-4.969 -0.52,-2.968 -0.766,-4.883 -0.738,-5.738 h -0.129 c -0.313,0.91 -1.258,2.859 -2.844,5.844 -1.48,2.801 -2.266,4.422 -2.359,4.863 h -1.266 c 0.133,-0.664 -0.113,-2.883 -0.731,-6.656 -0.617,-3.778 -0.902,-5.789 -0.855,-6.028 h 1.852 c -0.055,0.266 0.101,1.95 0.464,5.047 0.364,3.098 0.481,4.992 0.344,5.688 h 0.106 c 0.148,-0.735 1.027,-2.617 2.629,-5.649 1.613,-3.043 2.449,-4.734 2.515,-5.086 h 1.703 c -0.082,0.422 0.075,2.223 0.477,5.407 0.41,3.175 0.578,4.953 0.5,5.328 h 0.105 c 0.129,-0.637 0.961,-2.434 2.496,-5.399 1.54,-2.964 2.368,-4.746 2.481,-5.336 z" /><path
                 id="path210"
                 style="fill:#000000;fill-opacity:1;fill-rule:nonzero;stroke:none"
                 d="m 203.07,324.207 h -1.761 c 0.351,-1.301 0.691,-2.785 1.023,-4.453 0.375,-1.875 0.578,-3.453 0.602,-4.723 l 2.007,-0.265 c -0.351,1.359 -0.722,3.019 -1.121,4.988 -0.312,1.558 -0.562,3.043 -0.75,4.453 z m 2.844,-12.18 c -0.062,0.332 -0.23,0.621 -0.496,0.868 -0.258,0.242 -0.582,0.363 -0.973,0.363 -0.332,0 -0.57,-0.106 -0.711,-0.313 -0.144,-0.215 -0.187,-0.472 -0.129,-0.769 0.067,-0.324 0.231,-0.61 0.5,-0.848 0.27,-0.242 0.602,-0.359 0.993,-0.359 0.316,0 0.547,0.105 0.691,0.32 0.145,0.207 0.184,0.453 0.125,0.738 z" /><path
                 id="path212"
                 style="fill:#000000;fill-opacity:1;fill-rule:nonzero;stroke:none"
                 d="m 211.449,322.863 -0.371,1.266 c -0.551,0.187 -1.055,0.281 -1.512,0.281 -1.168,0 -1.906,-0.293 -2.218,-0.887 -0.313,-0.597 -0.313,-1.66 0,-3.195 0.195,-0.992 0.457,-2.289 0.789,-3.887 -0.364,0 -0.903,0.02 -1.617,0.059 l 0.339,-1.41 c 0.61,0.035 1.161,0.055 1.649,0.055 0.078,-0.387 0.293,-1.313 0.652,-2.774 l 1.559,-0.156 c -0.383,1.363 -0.633,2.34 -0.75,2.93 0.636,0 1.578,-0.032 2.824,-0.094 l -0.359,1.449 c -1.164,-0.039 -2.098,-0.059 -2.809,-0.059 -0.207,0.981 -0.434,2.086 -0.68,3.313 -0.265,1.34 -0.3,2.226 -0.109,2.66 0.203,0.43 0.687,0.645 1.453,0.645 0.254,0 0.641,-0.067 1.16,-0.196 z" /><path
                 id="path214"
                 style="fill:#000000;fill-opacity:1;fill-rule:nonzero;stroke:none"
                 d="m 221.512,324.207 h -1.774 c 0.485,-1.707 0.926,-3.547 1.313,-5.516 0.215,-1.05 0.16,-1.757 -0.164,-2.121 -0.317,-0.371 -0.825,-0.558 -1.52,-0.558 -0.972,0 -1.953,0.336 -2.933,1.004 -0.715,3.546 -1.168,5.945 -1.364,7.191 h -1.715 c 0.403,-1.715 0.918,-4.137 1.54,-7.269 0.554,-2.739 0.886,-4.887 1.003,-6.438 l 1.872,-0.098 c -0.45,1.981 -0.84,3.821 -1.18,5.512 h 0.058 c 1.149,-0.855 2.305,-1.285 3.469,-1.285 1.039,0 1.801,0.246 2.289,0.73 0.489,0.481 0.606,1.329 0.36,2.543 -0.02,0.125 -0.075,0.368 -0.164,0.731 -0.086,0.359 -0.153,0.672 -0.204,0.945 -0.191,0.938 -0.484,2.477 -0.886,4.629 z" /></g></g></g></g><g
         id="g216"><g
           id="g218"><g
             clip-path="url(#clipPath224)"
             id="g220"><g
               id="g226"><path
                 id="path228"
                 style="fill:#000000;fill-opacity:1;fill-rule:nonzero;stroke:none"
                 d="m 93.398,82.797 c -0.078,0.391 -0.941,1.918 -2.593,4.59 -1.641,2.66 -2.508,4.215 -2.598,4.664 h -1.328 c 0.055,-0.246 -0.086,-1.192 -0.418,-2.836 -0.402,-2.02 -0.66,-3.598 -0.77,-4.735 h -0.078 c -0.527,1.098 -1.375,2.68 -2.543,4.747 -0.922,1.636 -1.41,2.578 -1.461,2.824 h -1.336 c 0.079,-0.375 -0.132,-1.934 -0.64,-4.676 -0.5,-2.746 -0.723,-4.273 -0.664,-4.578 h 1.734 c -0.062,0.336 0.067,1.57 0.391,3.703 0.332,2.129 0.465,3.371 0.398,3.719 h 0.11 c 0.101,-0.531 0.75,-1.813 1.937,-3.848 1.188,-2.039 1.816,-3.23 1.891,-3.574 h 1.656 c -0.059,0.297 0.098,1.543 0.465,3.73 0.379,2.188 0.539,3.422 0.488,3.692 h 0.098 c 0.078,-0.395 0.668,-1.602 1.773,-3.621 1.11,-2.028 1.719,-3.293 1.82,-3.801 z" /><path
                 id="path230"
                 style="fill:#000000;fill-opacity:1;fill-rule:nonzero;stroke:none"
                 d="m 100.055,92.051 -1.539,0.058 c -0.012,-0.316 0.007,-0.621 0.058,-0.906 h -0.097 c -0.942,0.727 -2.098,1.094 -3.477,1.094 -0.746,0 -1.348,-0.219 -1.801,-0.656 -0.449,-0.442 -0.594,-1.067 -0.429,-1.879 0.199,-1 0.781,-1.801 1.742,-2.407 0.968,-0.609 2.601,-0.929 4.902,-0.964 0.051,-0.157 0.098,-0.332 0.137,-0.536 0.16,-0.796 0.054,-1.332 -0.324,-1.597 -0.368,-0.266 -0.985,-0.399 -1.848,-0.399 -1.02,0 -2.051,0.125 -3.09,0.379 l 0.438,-1.343 c 1.035,-0.282 2.183,-0.418 3.449,-0.418 1.156,0 2,0.238 2.531,0.718 0.535,0.477 0.688,1.285 0.461,2.438 -0.066,0.305 -0.191,0.859 -0.383,1.664 -0.187,0.801 -0.308,1.332 -0.359,1.598 -0.238,1.183 -0.364,2.234 -0.371,3.156 z M 98.711,90.16 c 0.164,-0.984 0.324,-1.871 0.477,-2.656 -1.219,0 -2.165,0.09 -2.833,0.269 -1.132,0.329 -1.789,0.946 -1.968,1.864 -0.184,0.883 0.351,1.324 1.597,1.324 1.071,0 1.981,-0.266 2.727,-0.801 z" /><path
                 id="path232"
                 style="fill:#000000;fill-opacity:1;fill-rule:nonzero;stroke:none"
                 d="m 109.008,89.41 c -0.375,1.899 -1.774,2.848 -4.199,2.848 -1.071,0 -2.051,-0.11 -2.942,-0.324 l 0.594,-1.43 c 0.781,0.324 1.664,0.484 2.652,0.484 1.414,0 2.203,-0.402 2.367,-1.207 0.079,-0.39 -0.019,-0.699 -0.292,-0.926 -0.266,-0.234 -0.735,-0.492 -1.403,-0.777 -0.851,-0.363 -1.453,-0.715 -1.805,-1.055 -0.503,-0.5 -0.691,-1.101 -0.554,-1.812 0.152,-0.738 0.554,-1.371 1.219,-1.899 0.667,-0.531 1.574,-0.796 2.718,-0.796 1.117,0 1.992,0.093 2.629,0.281 l -0.582,1.402 c -0.644,-0.277 -1.426,-0.418 -2.351,-0.418 -1.247,0 -1.942,0.36 -2.082,1.082 -0.079,0.364 0,0.657 0.234,0.887 0.238,0.219 0.734,0.488 1.48,0.809 0.805,0.343 1.387,0.679 1.743,1.011 0.527,0.512 0.718,1.125 0.574,1.84 z" /><path
                 id="path234"
                 style="fill:#000000;fill-opacity:1;fill-rule:nonzero;stroke:none"
                 d="m 121.02,92.051 h -2.055 c 0.082,-0.434 -0.055,-1.801 -0.41,-4.102 h -5.621 c -1.262,2.27 -1.938,3.633 -2.028,4.102 h -1.968 c 0.046,-0.239 1.296,-2.317 3.753,-6.223 2.461,-3.918 3.731,-6.07 3.809,-6.461 h 2.258 c -0.07,0.383 0.304,2.504 1.133,6.363 0.824,3.856 1.199,5.965 1.129,6.321 z m -2.661,-5.375 c -0.761,-3.813 -1.117,-5.84 -1.07,-6.082 h -0.109 c -0.039,0.203 -1.235,2.23 -3.586,6.082 z" /><path
                 id="path236"
                 style="fill:#000000;fill-opacity:1;fill-rule:nonzero;stroke:none"
                 d="m 127.738,90.707 -0.367,1.266 c -0.555,0.187 -1.059,0.285 -1.512,0.285 -1.168,0 -1.91,-0.297 -2.222,-0.887 -0.309,-0.598 -0.309,-1.664 0,-3.195 0.195,-0.996 0.461,-2.289 0.789,-3.887 -0.364,0 -0.903,0.02 -1.617,0.059 l 0.343,-1.414 c 0.61,0.039 1.157,0.058 1.645,0.058 0.078,-0.39 0.297,-1.316 0.652,-2.777 l 1.559,-0.156 c -0.383,1.363 -0.633,2.343 -0.75,2.933 0.637,0 1.578,-0.031 2.824,-0.097 l -0.359,1.453 c -1.161,-0.039 -2.098,-0.059 -2.805,-0.059 -0.207,0.981 -0.434,2.082 -0.684,3.309 -0.265,1.34 -0.3,2.226 -0.105,2.66 0.203,0.43 0.683,0.644 1.453,0.644 0.25,0 0.637,-0.066 1.156,-0.195 z" /><path
                 id="path238"
                 style="fill:#000000;fill-opacity:1;fill-rule:nonzero;stroke:none"
                 d="m 135.16,90.707 -0.367,1.266 c -0.555,0.187 -1.059,0.285 -1.512,0.285 -1.168,0 -1.91,-0.297 -2.222,-0.887 -0.309,-0.598 -0.309,-1.664 0,-3.195 0.195,-0.996 0.461,-2.289 0.789,-3.887 -0.364,0 -0.903,0.02 -1.618,0.059 l 0.344,-1.414 c 0.61,0.039 1.156,0.058 1.645,0.058 0.078,-0.39 0.297,-1.316 0.652,-2.777 l 1.559,-0.156 c -0.383,1.363 -0.633,2.343 -0.75,2.933 0.636,0 1.578,-0.031 2.824,-0.097 l -0.359,1.453 c -1.161,-0.039 -2.098,-0.059 -2.805,-0.059 -0.207,0.981 -0.434,2.082 -0.684,3.309 -0.265,1.34 -0.301,2.226 -0.105,2.66 0.199,0.43 0.683,0.644 1.453,0.644 0.25,0 0.637,-0.066 1.156,-0.195 z" /><path
                 id="path240"
                 style="fill:#000000;fill-opacity:1;fill-rule:nonzero;stroke:none"
                 d="m 144.746,82.797 -0.75,1.551 c -0.469,-0.203 -0.918,-0.305 -1.351,-0.305 -1.223,0 -2.129,0.582 -2.719,1.746 -0.598,2.984 -0.996,5.074 -1.199,6.262 h -1.723 c 0.512,-2.059 0.883,-3.656 1.109,-4.793 0.313,-1.539 0.453,-3.012 0.43,-4.422 l 1.75,-0.242 c -0.016,0.715 -0.051,1.191 -0.094,1.429 h 0.078 c 0.907,-1.031 1.828,-1.546 2.766,-1.546 0.492,0 1.062,0.105 1.703,0.32 z" /><path
                 id="path242"
                 style="fill:#000000;fill-opacity:1;fill-rule:nonzero;stroke:none"
                 d="m 146.039,92.051 h -1.766 c 0.352,-1.297 0.692,-2.781 1.024,-4.453 0.375,-1.875 0.578,-3.45 0.605,-4.723 l 2.004,-0.262 c -0.347,1.356 -0.722,3.02 -1.117,4.985 -0.312,1.562 -0.562,3.043 -0.75,4.453 z m 2.844,-12.176 c -0.067,0.332 -0.231,0.621 -0.496,0.867 -0.262,0.238 -0.586,0.36 -0.977,0.36 -0.332,0 -0.566,-0.106 -0.711,-0.313 -0.14,-0.215 -0.183,-0.469 -0.125,-0.769 0.063,-0.325 0.231,-0.606 0.496,-0.848 0.274,-0.238 0.606,-0.36 0.992,-0.36 0.321,0 0.551,0.106 0.692,0.321 0.144,0.207 0.187,0.457 0.129,0.742 z" /><path
                 id="path244"
                 style="fill:#000000;fill-opacity:1;fill-rule:nonzero;stroke:none"
                 d="m 158.641,87.043 c -0.286,1.422 -0.938,2.656 -1.957,3.703 -1.02,1.047 -2.235,1.57 -3.645,1.57 -1.191,0 -1.965,-0.214 -2.309,-0.644 h -0.078 l -0.32,0.379 h -1.43 c 0.532,-2.239 1.059,-4.664 1.578,-7.266 0.473,-2.351 0.793,-4.5 0.961,-6.441 l 1.95,-0.098 c -0.286,1.117 -0.672,2.887 -1.161,5.313 h 0.079 c 0.789,-0.735 1.871,-1.102 3.253,-1.102 1.204,0 2.079,0.445 2.633,1.344 0.551,0.894 0.7,1.976 0.446,3.242 z m -1.782,0.234 c 0.196,-0.98 0.106,-1.808 -0.273,-2.484 -0.375,-0.676 -1.016,-1.012 -1.918,-1.012 -1.168,0 -2.078,0.352 -2.727,1.063 -0.461,2.312 -0.785,4.183 -0.964,5.621 0.433,0.441 1.074,0.66 1.918,0.66 1.066,0 1.937,-0.371 2.621,-1.121 0.679,-0.746 1.129,-1.652 1.343,-2.727 z" /><path
                 id="path246"
                 style="fill:#000000;fill-opacity:1;fill-rule:nonzero;stroke:none"
                 d="m 167.789,92.043 -1.519,0.059 c -0.02,-0.364 -0.008,-0.664 0.039,-0.899 h -0.098 c -1.008,0.727 -2.129,1.094 -3.359,1.094 -1.125,0 -1.887,-0.27 -2.29,-0.809 -0.406,-0.547 -0.441,-1.64 -0.109,-3.285 0.047,-0.234 0.121,-0.582 0.223,-1.043 0.113,-0.461 0.183,-0.773 0.215,-0.945 0.191,-0.953 0.359,-2.078 0.507,-3.371 l 1.821,-0.067 c -0.324,1.254 -0.578,2.325 -0.758,3.215 -0.41,2.047 -0.547,3.379 -0.41,4.004 0.144,0.617 0.676,0.926 1.597,0.926 1.04,0 1.95,-0.262 2.727,-0.781 0.723,-3.61 1.176,-6.043 1.367,-7.297 l 1.762,-0.067 c -0.293,1.223 -0.656,2.911 -1.09,5.067 -0.273,1.383 -0.48,2.781 -0.625,4.199 z" /><path
                 id="path248"
                 style="fill:#000000;fill-opacity:1;fill-rule:nonzero;stroke:none"
                 d="m 175.621,90.707 -0.367,1.266 c -0.555,0.187 -1.059,0.285 -1.512,0.285 -1.168,0 -1.91,-0.297 -2.222,-0.887 -0.309,-0.598 -0.309,-1.664 0,-3.195 0.195,-0.996 0.46,-2.289 0.789,-3.887 -0.364,0 -0.903,0.02 -1.618,0.059 l 0.344,-1.414 c 0.61,0.039 1.16,0.058 1.645,0.058 0.078,-0.39 0.297,-1.316 0.652,-2.777 l 1.559,-0.156 c -0.383,1.363 -0.633,2.343 -0.75,2.933 0.636,0 1.578,-0.031 2.828,-0.097 l -0.364,1.453 c -1.16,-0.039 -2.097,-0.059 -2.804,-0.059 -0.207,0.981 -0.434,2.082 -0.684,3.309 -0.265,1.34 -0.301,2.226 -0.105,2.66 0.203,0.43 0.683,0.644 1.453,0.644 0.25,0 0.637,-0.066 1.156,-0.195 z" /><path
                 id="path250"
                 style="fill:#000000;fill-opacity:1;fill-rule:nonzero;stroke:none"
                 d="m 186.562,86.332 c -0.054,0.273 -0.14,0.652 -0.265,1.133 l -6.711,0.113 c -0.125,0.949 0.086,1.746 0.625,2.391 0.539,0.633 1.359,0.953 2.465,0.953 0.984,0 1.937,-0.121 2.851,-0.36 l -0.445,1.372 c -0.684,0.254 -1.625,0.382 -2.828,0.382 -1.688,0 -2.887,-0.464 -3.594,-1.386 -0.699,-0.922 -0.918,-2.043 -0.652,-3.368 0.285,-1.417 0.933,-2.636 1.949,-3.656 1.012,-1.023 2.199,-1.539 3.566,-1.539 1.25,0 2.129,0.371 2.629,1.113 0.508,0.739 0.645,1.692 0.41,2.852 z m -1.628,0.02 c 0.363,-1.825 -0.219,-2.739 -1.743,-2.739 -1.558,0 -2.668,0.949 -3.324,2.848 z" /><path
                 id="path252"
                 style="fill:#000000;fill-opacity:1;fill-rule:nonzero;stroke:none"
                 d="m 195.328,92.043 -1.461,0.047 c 0.004,-0.278 0.039,-0.574 0.098,-0.887 h -0.11 c -0.824,0.742 -1.91,1.113 -3.253,1.113 -1.235,0 -2.125,-0.449 -2.68,-1.347 -0.551,-0.895 -0.699,-1.977 -0.445,-3.242 0.285,-1.438 0.937,-2.672 1.957,-3.711 1.019,-1.039 2.265,-1.559 3.742,-1.559 1.051,0 1.762,0.215 2.133,0.641 h 0.078 c 0.316,-1.61 0.586,-3.192 0.808,-4.743 l 1.871,-0.07 c -0.457,1.653 -0.949,3.809 -1.484,6.481 -0.543,2.714 -0.961,5.14 -1.254,7.277 z m -1.18,-1.922 c 0.403,-2.019 0.735,-3.965 0.993,-5.832 -0.434,-0.437 -1.043,-0.656 -1.829,-0.656 -1.097,0 -1.996,0.367 -2.691,1.101 -0.687,0.727 -1.141,1.645 -1.363,2.75 -0.199,0.985 -0.11,1.817 0.273,2.493 0.383,0.675 1.031,1.011 1.949,1.011 1.149,0 2.04,-0.289 2.668,-0.867 z" /><path
                 id="path254"
                 style="fill:#000000;fill-opacity:1;fill-rule:nonzero;stroke:none"
                 d="m 208.855,79.367 -0.32,1.375 c -1.273,-0.066 -2.594,-0.097 -3.965,-0.097 -0.258,1.246 -0.582,2.828 -0.965,4.742 -0.421,2.117 -0.832,4.34 -1.238,6.664 h -1.781 c 0.519,-2.215 1.004,-4.434 1.453,-6.664 0.375,-1.887 0.672,-3.469 0.887,-4.742 -0.961,0 -2.321,0.039 -4.074,0.117 l 0.32,-1.395 z" /><path
                 id="path256"
                 style="fill:#000000;fill-opacity:1;fill-rule:nonzero;stroke:none"
                 d="m 217.379,87.141 c -0.332,1.664 -1.07,2.961 -2.211,3.898 -1.145,0.93 -2.363,1.391 -3.656,1.391 -1.207,0 -2.16,-0.41 -2.864,-1.235 -0.699,-0.824 -0.902,-1.988 -0.601,-3.488 0.336,-1.676 1.078,-2.984 2.219,-3.926 1.148,-0.941 2.371,-1.414 3.664,-1.414 1.207,0 2.16,0.418 2.855,1.258 0.692,0.832 0.891,2.004 0.594,3.516 z m -1.754,0.343 c 0.199,-1.015 0.125,-1.914 -0.227,-2.699 -0.347,-0.793 -0.996,-1.191 -1.937,-1.191 -0.934,0 -1.731,0.375 -2.387,1.121 -0.648,0.746 -1.074,1.613 -1.277,2.601 -0.199,1.02 -0.125,1.922 0.226,2.707 0.352,0.789 1,1.18 1.95,1.18 0.933,0 1.726,-0.371 2.375,-1.121 0.656,-0.75 1.082,-1.617 1.277,-2.598 z" /></g></g></g></g><g
         id="g258"><g
           id="g260"><g
             clip-path="url(#clipPath266)"
             id="g262"><g
               id="g268"><path
                 id="path270"
                 style="fill:#000000;fill-opacity:1;fill-rule:nonzero;stroke:none"
                 d="m 323.824,4.512 c -0.078,0.386 -0.941,1.918 -2.594,4.586 -1.64,2.664 -2.507,4.218 -2.601,4.668 h -1.324 c 0.054,-0.246 -0.086,-1.192 -0.418,-2.836 -0.403,-2.02 -0.66,-3.598 -0.77,-4.735 h -0.078 c -0.527,1.098 -1.375,2.68 -2.543,4.746 -0.922,1.637 -1.41,2.579 -1.461,2.825 h -1.336 c 0.078,-0.379 -0.133,-1.938 -0.64,-4.676 -0.5,-2.746 -0.723,-4.274 -0.664,-4.578 h 1.734 c -0.063,0.336 0.066,1.57 0.391,3.699 0.332,2.133 0.464,3.371 0.398,3.723 h 0.109 c 0.102,-0.532 0.75,-1.817 1.938,-3.848 1.187,-2.039 1.816,-3.231 1.89,-3.574 h 1.657 c -0.059,0.297 0.097,1.543 0.465,3.73 0.378,2.188 0.539,3.418 0.488,3.692 h 0.097 c 0.079,-0.395 0.668,-1.606 1.774,-3.625 1.109,-2.024 1.719,-3.293 1.82,-3.797 z" /><path
                 id="path272"
                 style="fill:#000000;fill-opacity:1;fill-rule:nonzero;stroke:none"
                 d="m 330.48,13.766 -1.539,0.058 c -0.011,-0.32 0.008,-0.621 0.059,-0.906 h -0.098 c -0.941,0.727 -2.101,1.09 -3.476,1.09 -0.746,0 -1.348,-0.215 -1.801,-0.653 -0.449,-0.441 -0.594,-1.066 -0.43,-1.878 0.2,-1 0.782,-1.805 1.743,-2.407 0.968,-0.609 2.601,-0.933 4.902,-0.965 0.051,-0.156 0.098,-0.335 0.137,-0.535 0.16,-0.8 0.054,-1.332 -0.325,-1.597 -0.367,-0.266 -0.984,-0.399 -1.847,-0.399 -1.024,0 -2.051,0.125 -3.09,0.379 l 0.437,-1.344 c 1.036,-0.281 2.184,-0.421 3.45,-0.421 1.156,0 2,0.242 2.531,0.722 0.535,0.473 0.687,1.285 0.461,2.434 -0.067,0.308 -0.192,0.863 -0.383,1.668 -0.188,0.797 -0.309,1.332 -0.359,1.597 -0.239,1.18 -0.364,2.235 -0.372,3.157 z m -1.343,-1.891 c 0.164,-0.988 0.32,-1.875 0.476,-2.66 -1.218,0 -2.164,0.094 -2.832,0.273 -1.133,0.324 -1.789,0.946 -1.969,1.86 -0.183,0.886 0.352,1.328 1.598,1.328 1.07,0 1.981,-0.27 2.727,-0.801 z" /><path
                 id="path274"
                 style="fill:#000000;fill-opacity:1;fill-rule:nonzero;stroke:none"
                 d="m 339.434,11.125 c -0.375,1.898 -1.778,2.844 -4.2,2.844 -1.07,0 -2.05,-0.106 -2.941,-0.321 l 0.594,-1.433 c 0.781,0.324 1.664,0.488 2.652,0.488 1.414,0 2.203,-0.402 2.367,-1.207 0.078,-0.391 -0.019,-0.699 -0.293,-0.926 -0.265,-0.234 -0.734,-0.492 -1.402,-0.781 -0.852,-0.363 -1.453,-0.715 -1.805,-1.051 -0.504,-0.5 -0.691,-1.105 -0.554,-1.812 0.148,-0.738 0.554,-1.371 1.218,-1.899 0.668,-0.531 1.575,-0.8 2.719,-0.8 1.117,0 1.992,0.093 2.629,0.285 l -0.586,1.402 c -0.641,-0.281 -1.422,-0.418 -2.348,-0.418 -1.246,0 -1.941,0.359 -2.082,1.078 -0.078,0.364 0,0.66 0.235,0.887 0.238,0.223 0.73,0.492 1.48,0.809 0.805,0.343 1.387,0.683 1.742,1.015 0.528,0.512 0.719,1.125 0.575,1.84 z" /><path
                 id="path276"
                 style="fill:#000000;fill-opacity:1;fill-rule:nonzero;stroke:none"
                 d="m 352.477,6.965 c -0.372,1.844 -1.286,3.461 -2.747,4.851 -1.457,1.391 -3.218,2.086 -5.289,2.086 -0.675,0 -1.793,-0.047 -3.351,-0.136 0.5,-2.016 0.992,-4.235 1.48,-6.664 0.453,-2.286 0.805,-4.293 1.051,-6.02 h 1.07 c 0.262,0 0.661,-0.012 1.2,-0.031 0.539,-0.02 0.894,-0.028 1.062,-0.028 2.293,0 3.871,0.567 4.735,1.696 0.863,1.121 1.128,2.539 0.789,4.246 z m -1.782,0.437 c 0.285,-1.441 0.063,-2.644 -0.664,-3.613 -0.719,-0.969 -2.043,-1.449 -3.965,-1.449 -0.273,0 -0.652,0.031 -1.14,0.094 -0.254,1.515 -0.539,3.07 -0.856,4.668 -0.351,1.753 -0.672,3.535 -0.965,5.339 0.5,0.102 0.993,0.157 1.473,0.157 1.711,0 3.09,-0.508 4.129,-1.52 1.039,-1.019 1.703,-2.246 1.988,-3.676 z" /><path
                 id="path278"
                 style="fill:#000000;fill-opacity:1;fill-rule:nonzero;stroke:none"
                 d="m 361.543,8.047 c -0.051,0.273 -0.141,0.648 -0.266,1.129 l -6.711,0.117 c -0.121,0.949 0.086,1.746 0.625,2.387 0.539,0.636 1.36,0.957 2.465,0.957 0.985,0 1.938,-0.121 2.852,-0.364 l -0.446,1.375 c -0.683,0.254 -1.624,0.379 -2.824,0.379 -1.691,0 -2.89,-0.461 -3.597,-1.382 -0.7,-0.922 -0.918,-2.047 -0.653,-3.372 0.285,-1.414 0.938,-2.632 1.95,-3.652 1.011,-1.027 2.203,-1.539 3.566,-1.539 1.254,0 2.129,0.371 2.629,1.109 0.508,0.743 0.644,1.692 0.41,2.856 z m -1.629,0.019 c 0.363,-1.824 -0.215,-2.738 -1.742,-2.738 -1.559,0 -2.668,0.949 -3.32,2.844 z" /><path
                 id="path280"
                 style="fill:#000000;fill-opacity:1;fill-rule:nonzero;stroke:none"
                 d="m 369.645,4.512 -0.75,1.547 c -0.465,-0.2 -0.918,-0.301 -1.352,-0.301 -1.223,0 -2.129,0.582 -2.719,1.742 -0.597,2.988 -0.996,5.078 -1.199,6.266 h -1.723 c 0.512,-2.059 0.883,-3.657 1.11,-4.793 0.312,-1.539 0.453,-3.016 0.429,-4.422 l 1.754,-0.246 c -0.019,0.715 -0.054,1.191 -0.097,1.433 h 0.078 c 0.906,-1.031 1.832,-1.55 2.765,-1.55 0.493,0 1.063,0.109 1.704,0.324 z" /><path
                 id="path282"
                 style="fill:#000000;fill-opacity:1;fill-rule:nonzero;stroke:none"
                 d="m 370.938,13.766 h -1.766 c 0.351,-1.301 0.691,-2.786 1.023,-4.454 0.379,-1.874 0.578,-3.453 0.606,-4.722 l 2.008,-0.266 c -0.352,1.36 -0.727,3.02 -1.121,4.988 -0.313,1.559 -0.563,3.043 -0.75,4.454 z M 373.781,1.59 c -0.066,0.328 -0.23,0.617 -0.496,0.863 -0.262,0.242 -0.586,0.363 -0.976,0.363 -0.329,0 -0.567,-0.105 -0.711,-0.312 -0.141,-0.215 -0.184,-0.473 -0.125,-0.77 0.066,-0.324 0.23,-0.609 0.496,-0.847 0.273,-0.242 0.605,-0.36 0.992,-0.36 0.32,0 0.551,0.106 0.695,0.321 0.141,0.207 0.184,0.453 0.125,0.742 z" /><path
                 id="path284"
                 style="fill:#000000;fill-opacity:1;fill-rule:nonzero;stroke:none"
                 d="m 383.426,4.512 c -0.067,0.316 -1.031,1.851 -2.895,4.605 -1.863,2.75 -2.832,4.297 -2.902,4.649 h -1.305 c 0.09,-0.454 -0.172,-2.043 -0.789,-4.766 -0.613,-2.727 -0.89,-4.223 -0.84,-4.488 h 1.891 c -0.066,0.308 0.105,1.547 0.516,3.711 0.418,2.16 0.593,3.398 0.535,3.711 h 0.09 c 0.058,-0.297 0.695,-1.493 1.91,-3.575 1.218,-2.086 1.879,-3.367 1.976,-3.847 z" /><path
                 id="path286"
                 style="fill:#000000;fill-opacity:1;fill-rule:nonzero;stroke:none"
                 d="m 392.188,8.047 c -0.051,0.273 -0.141,0.648 -0.262,1.129 l -6.715,0.117 c -0.121,0.949 0.086,1.746 0.625,2.387 0.539,0.636 1.359,0.957 2.465,0.957 0.988,0 1.937,-0.121 2.855,-0.364 l -0.449,1.375 c -0.684,0.254 -1.625,0.379 -2.824,0.379 -1.692,0 -2.887,-0.461 -3.598,-1.382 -0.699,-0.922 -0.918,-2.047 -0.652,-3.372 0.285,-1.414 0.937,-2.632 1.949,-3.652 1.012,-1.027 2.203,-1.539 3.566,-1.539 1.254,0 2.129,0.371 2.629,1.109 0.508,0.743 0.645,1.692 0.411,2.856 z m -1.629,0.019 c 0.367,-1.824 -0.215,-2.738 -1.743,-2.738 -1.558,0 -2.664,0.949 -3.32,2.844 z" /><path
                 id="path288"
                 style="fill:#000000;fill-opacity:1;fill-rule:nonzero;stroke:none"
                 d="m 400.855,13.754 -1.464,0.051 c 0.007,-0.282 0.039,-0.575 0.097,-0.887 h -0.105 c -0.824,0.738 -1.91,1.109 -3.254,1.109 -1.234,0 -2.125,-0.445 -2.68,-1.343 -0.551,-0.895 -0.699,-1.977 -0.449,-3.243 0.289,-1.437 0.941,-2.675 1.961,-3.714 1.019,-1.039 2.266,-1.559 3.738,-1.559 1.055,0 1.766,0.215 2.137,0.644 h 0.078 C 401.23,3.203 401.5,1.621 401.723,0.066 L 403.59,0 c -0.453,1.648 -0.945,3.809 -1.481,6.477 -0.543,2.714 -0.964,5.14 -1.254,7.277 z m -1.179,-1.918 c 0.402,-2.02 0.734,-3.965 0.992,-5.836 -0.434,-0.434 -1.047,-0.652 -1.832,-0.652 -1.098,0 -1.992,0.367 -2.688,1.101 -0.687,0.727 -1.144,1.645 -1.363,2.746 -0.203,0.989 -0.109,1.821 0.274,2.496 0.382,0.676 1.031,1.012 1.945,1.012 1.152,0 2.043,-0.289 2.672,-0.867 z" /><path
                 id="path290"
                 style="fill:#000000;fill-opacity:1;fill-rule:nonzero;stroke:none"
                 d="m 413.77,1.082 -0.36,1.449 c -1.715,-0.078 -3.668,-0.117 -5.855,-0.117 -0.137,1.078 -0.395,2.566 -0.782,4.465 1.528,0 3.02,-0.027 4.473,-0.078 l -0.281,1.41 c -1.379,-0.051 -2.856,-0.078 -4.434,-0.078 -0.511,2.539 -0.855,4.418 -1.023,5.633 h -1.774 c 0.496,-2.016 0.985,-4.235 1.473,-6.664 0.453,-2.286 0.809,-4.293 1.063,-6.02 z" /><path
                 id="path292"
                 style="fill:#000000;fill-opacity:1;fill-rule:nonzero;stroke:none"
                 d="m 420.004,4.512 -0.75,1.547 c -0.469,-0.2 -0.922,-0.301 -1.356,-0.301 -1.222,0 -2.125,0.582 -2.718,1.742 -0.598,2.988 -0.996,5.078 -1.196,6.266 h -1.726 c 0.512,-2.059 0.883,-3.657 1.109,-4.793 0.313,-1.539 0.457,-3.016 0.43,-4.422 l 1.754,-0.246 c -0.02,0.715 -0.051,1.191 -0.098,1.433 h 0.078 c 0.91,-1.031 1.832,-1.55 2.766,-1.55 0.496,0 1.062,0.109 1.707,0.324 z" /><path
                 id="path294"
                 style="fill:#000000;fill-opacity:1;fill-rule:nonzero;stroke:none"
                 d="m 429.449,8.855 c -0.332,1.665 -1.07,2.961 -2.211,3.899 -1.144,0.926 -2.363,1.391 -3.656,1.391 -1.207,0 -2.16,-0.411 -2.863,-1.239 -0.699,-0.824 -0.903,-1.984 -0.602,-3.484 0.336,-1.676 1.078,-2.984 2.219,-3.926 1.148,-0.945 2.371,-1.414 3.664,-1.414 1.207,0 2.16,0.418 2.855,1.258 0.696,0.828 0.891,2.004 0.594,3.515 z m -1.754,0.34 c 0.2,-1.011 0.125,-1.91 -0.226,-2.699 -0.348,-0.789 -0.996,-1.187 -1.938,-1.187 -0.933,0 -1.73,0.375 -2.386,1.121 -0.649,0.746 -1.075,1.613 -1.278,2.601 -0.199,1.02 -0.125,1.922 0.227,2.707 0.351,0.785 1,1.18 1.949,1.18 0.934,0 1.727,-0.375 2.375,-1.121 0.656,-0.754 1.082,-1.621 1.277,-2.602 z" /><path
                 id="path296"
                 style="fill:#000000;fill-opacity:1;fill-rule:nonzero;stroke:none"
                 d="m 443.449,8.125 c 0.207,-1.039 0.164,-1.727 -0.137,-2.055 -0.292,-0.34 -0.847,-0.508 -1.675,-0.508 -0.696,0 -1.481,0.34 -2.356,1.024 -0.183,0.793 -0.347,1.566 -0.496,2.328 -0.223,1.086 -0.527,2.703 -0.918,4.852 h -1.773 c 0.515,-1.852 0.961,-3.731 1.344,-5.641 0.21,-1.039 0.164,-1.727 -0.133,-2.055 -0.293,-0.34 -0.836,-0.508 -1.629,-0.508 -0.813,0 -1.641,0.34 -2.485,1.024 -0.41,2.059 -0.871,4.453 -1.39,7.18 h -1.774 c 0.563,-2.207 0.946,-3.805 1.137,-4.793 0.309,-1.5 0.457,-2.977 0.449,-4.422 l 1.766,-0.246 -0.059,1.179 h 0.098 c 1.02,-0.863 2.043,-1.296 3.078,-1.296 1.539,0 2.442,0.433 2.707,1.296 h 0.106 c 1.156,-0.863 2.211,-1.296 3.168,-1.296 1.089,0 1.867,0.242 2.328,0.722 0.461,0.481 0.57,1.328 0.332,2.543 -0.028,0.121 -0.086,0.367 -0.176,0.731 -0.086,0.363 -0.137,0.605 -0.156,0.73 -0.223,1.086 -0.532,2.703 -0.938,4.852 h -1.769 c 0.484,-1.704 0.937,-3.582 1.351,-5.641 z" /></g></g></g></g></g></g></svg>